<svg width="424" height="413" viewBox="0 0 424 413" fill="none" xmlns="http://www.w3.org/2000/svg">
<g filter="url(#filter0_d_11_1132)">
<rect x="195.958" y="118.844" width="7.51304" height="7.51304" rx="3.75652" fill="url(#paint0_linear_11_1132)"/>
</g>
<g filter="url(#filter1_d_11_1132)">
<rect x="399.312" y="215.511" width="7.51304" height="7.51304" rx="3.75652" fill="url(#paint1_linear_11_1132)"/>
</g>
<g filter="url(#filter2_d_11_1132)">
<rect x="319.172" y="291.644" width="7.51304" height="7.51304" rx="3.75652" fill="url(#paint2_linear_11_1132)"/>
</g>
<g filter="url(#filter3_d_11_1132)">
<rect x="176.425" y="285.633" width="15.527" height="15.527" rx="7.76348" fill="url(#paint3_linear_11_1132)"/>
</g>
<g filter="url(#filter4_d_11_1132)">
<rect x="314.665" y="262.594" width="9.01565" height="9.01565" rx="4.50783" fill="url(#paint4_linear_11_1132)"/>
</g>
<g filter="url(#filter5_d_11_1132)">
<rect x="73.2455" y="262.093" width="9.01565" height="9.01565" rx="4.50783" fill="url(#paint5_linear_11_1132)"/>
</g>
<g filter="url(#filter6_d_11_1132)">
<rect x="267.082" y="303.164" width="4.50783" height="4.50783" rx="2.25391" fill="url(#paint6_linear_11_1132)"/>
</g>
<path d="M226.244 46.6693C226.244 46.6693 182.042 48.0994 170.854 68.4773C159.959 88.3232 180.664 125.615 180.664 125.615C180.664 125.615 210.91 175.389 202.573 207.377C188.338 261.985 97.4868 205.567 65.0458 251.743C28.9177 303.168 84.743 411.463 84.743 411.463" stroke="#FFC819" stroke-width="0.585029"/>
<path d="M370.991 384.126C370.991 384.126 401.235 351.86 394.736 329.54C388.407 307.802 347.397 296.074 347.397 296.074C347.397 296.074 290.814 282.265 274.091 253.751C245.542 205.072 349.678 180.724 339.966 125.133C329.149 63.2238 213.098 26.122 213.098 26.122" stroke="#FCC822" stroke-width="0.877543"/>
<circle cx="276.098" cy="187.963" r="3.00522" fill="url(#paint7_linear_11_1132)"/>
<circle cx="291.123" cy="206.838" r="3.00522" fill="url(#paint8_linear_11_1132)"/>
<circle cx="300.64" cy="206.839" r="1.50261" fill="url(#paint9_linear_11_1132)"/>
<circle cx="297.853" cy="213.567" r="1.50261" transform="rotate(45 297.853 213.567)" fill="url(#paint10_linear_11_1132)"/>
<circle cx="290.962" cy="216.355" r="1.50261" transform="rotate(90 290.962 216.355)" fill="url(#paint11_linear_11_1132)"/>
<circle cx="284.233" cy="213.568" r="1.50261" transform="rotate(135 284.233 213.568)" fill="url(#paint12_linear_11_1132)"/>
<circle cx="281.607" cy="206.839" r="1.50261" fill="url(#paint13_linear_11_1132)"/>
<circle cx="284.394" cy="200.109" r="1.50261" transform="rotate(45 284.394 200.109)" fill="url(#paint14_linear_11_1132)"/>
<circle cx="290.962" cy="197.322" r="1.50261" transform="rotate(90 290.962 197.322)" fill="url(#paint15_linear_11_1132)"/>
<circle cx="297.691" cy="200.109" r="1.50261" transform="rotate(135 297.691 200.109)" fill="url(#paint16_linear_11_1132)"/>
<path d="M258.681 285.36L261.301 285.829C264.084 286.325 265.936 288.985 265.439 291.767L264.958 294.454C264.461 297.237 261.802 299.089 259.02 298.592L256.4 298.123C253.618 297.627 251.765 294.967 252.262 292.185L252.743 289.499C253.24 286.715 255.899 284.863 258.681 285.36ZM276.109 213.056C282.915 214.272 287.629 217.634 290.251 223.138C292.338 227.487 292.919 232.258 291.99 237.452C290.437 246.14 285.026 253.699 275.757 260.129C272.525 262.371 270.496 265.29 269.667 268.885C269.361 270.078 269.076 271.413 268.812 272.892C268.315 275.674 265.656 277.527 262.874 277.029L260.254 276.561C257.471 276.063 255.619 273.405 256.116 270.622V270.622C257.533 262.695 260.533 257.156 265.117 254C270.071 250.587 273.723 246.827 276.076 242.718C277.428 240.326 278.356 237.719 278.861 234.897C279.38 231.986 279.139 229.587 278.137 227.697C277.046 225.516 275.105 224.36 272.31 224.23C269.701 224.088 267.548 225.528 265.853 228.553C265.767 228.698 265.684 228.848 265.602 229.001C264.4 231.236 261.731 232.242 259.349 231.37L257.013 230.515C254.123 229.457 252.804 226.096 254.217 223.361C255.62 220.643 257.471 218.337 259.769 216.443C262.259 214.393 265.438 213.158 269.303 212.74C271.331 212.503 273.6 212.606 276.109 213.056Z" fill="#AEDBED"/>
<path d="M159.202 296.082L161.377 296.185C163.688 296.295 165.472 298.258 165.362 300.568L165.256 302.8C165.146 305.111 163.183 306.894 160.873 306.785L158.697 306.682C156.387 306.571 154.603 304.609 154.713 302.298L154.819 300.066C154.929 297.756 156.891 295.972 159.202 296.082ZM165.718 235.559C171.37 235.828 175.551 238.059 178.259 242.251C180.412 245.559 181.386 249.371 181.181 253.684C180.838 260.9 177.243 267.605 170.398 273.802C168.011 275.963 166.673 278.546 166.38 281.551C166.257 282.551 166.167 283.665 166.108 284.893C165.998 287.203 164.036 288.987 161.725 288.878L159.55 288.774C157.238 288.663 155.455 286.702 155.564 284.391C155.878 277.808 157.729 272.995 161.117 269.95C164.777 266.658 167.345 263.221 168.82 259.637C169.665 257.552 170.143 255.339 170.255 252.997C170.37 250.58 169.921 248.657 168.908 247.229C167.793 245.574 166.095 244.841 163.813 245.03C161.681 245.19 160.085 246.586 159.029 249.219C158.975 249.347 158.922 249.477 158.872 249.61C158.133 251.551 156.073 252.648 154.048 252.192L152.062 251.745C149.603 251.191 148.18 248.603 149.037 246.234C149.889 243.879 151.147 241.813 152.812 240.033C154.618 238.107 157.068 236.769 160.16 236.022C161.782 235.615 163.635 235.46 165.718 235.559Z" fill="#AEDBED"/>
<path d="M197.575 208.996L199.234 208.705C200.997 208.396 202.675 209.574 202.984 211.336L203.283 213.037C203.592 214.798 202.415 216.478 200.653 216.787L198.993 217.078C197.232 217.387 195.553 216.209 195.244 214.447L194.945 212.747C194.636 210.985 195.814 209.305 197.575 208.996ZM192.22 162.234C196.529 161.477 200.061 162.451 202.816 165.153C205.001 167.284 206.383 169.994 206.961 173.282C207.926 178.784 206.352 184.452 202.241 190.289C200.807 192.324 200.235 194.499 200.525 196.816C200.602 197.592 200.723 198.448 200.887 199.383C201.196 201.145 200.018 202.824 198.257 203.133L196.598 203.424C194.836 203.733 193.157 202.556 192.847 200.793C191.967 195.775 192.546 191.83 194.585 188.959C196.787 185.853 198.142 182.824 198.646 179.871C198.929 178.155 198.915 176.404 198.601 174.618C198.278 172.774 197.613 171.401 196.606 170.496C195.485 169.436 194.079 169.171 192.39 169.701C190.808 170.183 189.841 171.507 189.492 173.674C189.472 173.779 189.455 173.886 189.439 173.995C189.212 175.584 187.844 176.763 186.238 176.762L184.665 176.761C182.716 176.76 181.202 175.05 181.447 173.117C181.691 171.196 182.289 169.424 183.243 167.799C184.279 166.039 185.9 164.614 188.106 163.526C189.259 162.944 190.631 162.512 192.22 162.234Z" fill="#AEDBED"/>
<path d="M76.1911 258.974L77.2925 259.259C78.4618 259.561 79.1638 260.755 78.8612 261.924L78.5686 263.053C78.266 264.223 77.0725 264.925 75.9033 264.622L74.8018 264.337C73.6326 264.034 72.9305 262.841 73.2332 261.672L73.5257 260.542C73.8283 259.373 75.0218 258.67 76.1911 258.974ZM85.979 228.735C88.8394 229.477 90.738 231.062 91.6756 233.494C92.4229 235.414 92.5142 237.467 91.9486 239.65C91.0032 243.3 88.451 246.345 84.291 248.782C82.8409 249.63 81.8807 250.808 81.4103 252.313C81.2411 252.811 81.0757 253.37 80.915 253.992C80.6123 255.161 79.4189 255.864 78.2496 255.56L77.149 255.276C75.9797 254.973 75.2769 253.78 75.5795 252.61C76.4423 249.279 77.9017 247.017 79.9587 245.822C82.1802 244.529 83.8596 243.047 84.9962 241.373C85.6498 240.398 86.1311 239.318 86.4377 238.131C86.7544 236.909 86.7302 235.878 86.3643 235.04C85.972 234.075 85.1818 233.519 83.9954 233.373C82.8885 233.226 81.9244 233.769 81.103 235.003C81.0616 235.063 81.0211 235.124 80.9813 235.187C80.3963 236.099 79.2262 236.44 78.2395 235.992L77.273 235.551C76.0756 235.005 75.6232 233.53 76.3151 232.411C77.0015 231.299 77.865 230.377 78.9056 229.644C80.0343 228.853 81.429 228.431 83.0897 228.378C83.9618 228.343 84.9252 228.463 85.979 228.735Z" fill="#AEDBED"/>
<path d="M119.452 263.799L122.851 262.926C126.461 261.999 130.139 264.174 131.066 267.784L131.961 271.27C132.889 274.88 130.713 278.559 127.103 279.486L123.704 280.359C120.094 281.285 116.416 279.111 115.488 275.501L114.594 272.014C113.666 268.404 115.842 264.726 119.452 263.799ZM100.768 167.519C109.599 165.251 117.094 166.703 123.254 171.872C128.138 175.945 131.446 181.351 133.177 188.09C136.072 199.363 133.719 211.393 126.12 224.183C123.47 228.641 122.634 233.254 123.61 238.02C123.896 239.618 124.285 241.376 124.778 243.294C125.704 246.904 123.53 250.582 119.92 251.509L116.519 252.382C112.91 253.309 109.232 251.135 108.305 247.525C105.664 237.239 106.23 228.95 110.001 222.655C114.075 215.849 116.398 209.339 116.97 203.121C117.282 199.511 116.967 195.875 116.027 192.214C115.058 188.439 113.455 185.692 111.218 183.974C108.716 181.954 105.753 181.631 102.328 183.005C99.1215 184.263 97.3274 187.169 96.9499 191.726C96.928 191.948 96.9093 192.174 96.8945 192.402C96.6769 195.74 94.0263 198.409 90.6909 198.667L87.4209 198.92C83.3741 199.234 79.9528 195.924 80.1486 191.869C80.3436 187.841 81.3008 184.061 83.02 180.531C84.8858 176.708 88.0231 173.486 92.4303 170.868C94.7346 169.472 97.5131 168.355 100.768 167.519Z" fill="#AEDBED"/>
<path d="M341.923 266.044L344.326 265.427C346.877 264.772 349.476 266.309 350.131 268.86L350.763 271.324C351.419 273.875 349.882 276.474 347.331 277.129L344.928 277.746C342.377 278.402 339.778 276.864 339.123 274.313L338.49 271.849C337.835 269.299 339.372 266.7 341.923 266.044ZM328.72 198.005C334.961 196.403 340.258 197.429 344.61 201.082C348.062 203.959 350.4 207.78 351.623 212.542C353.668 220.508 352.006 229.01 346.636 238.048C344.763 241.198 344.172 244.457 344.862 247.826C345.064 248.956 345.339 250.199 345.687 251.554C346.342 254.104 344.805 256.703 342.254 257.359L339.852 257.976C337.301 258.631 334.702 257.093 334.046 254.543C332.18 247.275 332.58 241.418 335.245 236.968C338.124 232.159 339.765 227.558 340.17 223.164C340.39 220.613 340.168 218.044 339.504 215.456C338.819 212.789 337.685 210.847 336.105 209.633C334.337 208.207 332.243 207.977 329.823 208.949C327.557 209.837 326.289 211.892 326.022 215.111C326.006 215.268 325.993 215.428 325.982 215.589C325.83 217.949 323.956 219.834 321.599 220.017L319.288 220.196C316.428 220.417 314.01 218.079 314.149 215.213C314.287 212.366 314.963 209.695 316.178 207.2C317.497 204.498 319.714 202.222 322.829 200.372C324.456 199.385 326.42 198.596 328.72 198.005Z" fill="#AEDBED"/>
<path d="M330.936 153.163L332.264 152.822C333.674 152.461 335.111 153.309 335.473 154.72L335.822 156.081C336.185 157.492 335.335 158.929 333.925 159.29L332.597 159.631C331.187 159.993 329.75 159.144 329.389 157.734L329.038 156.372C328.676 154.962 329.526 153.525 330.936 153.163ZM323.638 115.555C327.087 114.669 330.016 115.236 332.421 117.256C334.329 118.846 335.621 120.958 336.297 123.591C337.428 127.993 336.509 132.693 333.541 137.688C332.506 139.431 332.18 141.231 332.56 143.093C332.672 143.718 332.824 144.404 333.016 145.153C333.378 146.563 332.529 148 331.119 148.362L329.791 148.703C328.381 149.065 326.944 148.216 326.582 146.806C325.551 142.788 325.771 139.551 327.245 137.091C328.836 134.433 329.743 131.89 329.967 129.461C330.088 128.052 329.966 126.631 329.598 125.201C329.22 123.726 328.594 122.654 327.719 121.982C326.743 121.194 325.585 121.067 324.247 121.604C322.995 122.095 322.294 123.231 322.147 125.01C322.138 125.098 322.13 125.186 322.125 125.275C322.04 126.579 321.005 127.621 319.702 127.722L318.424 127.821C316.844 127.943 315.508 126.651 315.584 125.066C315.661 123.493 316.034 122.016 316.706 120.638C317.434 119.144 318.66 117.885 320.381 116.863C321.282 116.318 322.367 115.881 323.638 115.555Z" fill="#AEDBED"/>
<path d="M152.779 176.615C152.779 176.615 160.462 139.156 142.955 141.001L126.218 175.849C126.218 175.849 137.437 180.447 152.779 176.615Z" fill="#361710"/>
<path d="M113.771 176.615C113.771 176.615 109.512 146.238 122.726 138.53L140.331 175.849C140.331 175.849 129.114 180.447 113.771 176.615Z" fill="#361710"/>
<path d="M86.6484 168.214H88.6859C90.8497 168.214 92.604 169.969 92.604 172.132V174.222C92.604 176.386 90.8497 178.14 88.6859 178.14H86.6484C84.4846 178.14 82.7311 176.386 82.7311 174.222V172.132C82.7311 169.969 84.4846 168.214 86.6484 168.214ZM90.0447 111.379C95.3373 111.379 99.342 113.277 102.059 117.073C104.218 120.068 105.298 123.585 105.298 127.625C105.298 134.382 102.238 140.807 96.1189 146.901C93.9847 149.025 92.849 151.498 92.7093 154.32C92.6391 155.26 92.604 156.303 92.604 157.453C92.604 159.618 90.8497 161.371 88.6859 161.371H86.6484C84.4846 161.371 82.7311 159.618 82.7311 157.453C82.7311 151.289 84.2459 146.71 87.2756 143.715C90.5486 140.475 92.7944 137.15 94.0143 133.737C94.7101 131.752 95.0588 129.663 95.0588 127.468C95.0588 125.205 94.5541 123.429 93.544 122.141C92.4293 120.644 90.8099 120.033 88.6859 120.311C86.7007 120.556 85.2724 121.932 84.4027 124.439C84.3575 124.56 84.3146 124.684 84.2732 124.811C83.6695 126.657 81.7935 127.774 79.8808 127.439L78.0056 127.109C75.6842 126.7 74.2388 124.346 74.9346 122.094C75.6257 119.857 76.71 117.87 78.1858 116.132C79.788 114.252 82.0166 112.894 84.8731 112.059C86.37 111.606 88.0931 111.379 90.0447 111.379Z" fill="#FCC822"/>
<path d="M135.393 322.099C135.393 322.099 134.424 325.846 132.68 325.281C129.419 324.228 129.229 322.099 129.229 322.099C129.229 322.099 127.173 328.299 127.564 331.251C127.956 334.204 127.564 340.842 127.564 340.842H130.54C130.54 340.842 133.323 341.18 134.477 342.858C135.631 344.536 141.953 344.038 143.957 342.962C146.525 341.584 139.787 334.57 137.403 330.661C135.019 326.752 135.393 322.099 135.393 322.099Z" fill="#1C0906"/>
<path d="M129.824 266.925C131.88 261.846 139.216 261.903 141.025 267.074C141.351 268.006 141.587 268.982 141.742 269.969C142.502 274.819 141.738 282.591 139.736 292.518C137.034 305.911 135.574 332.629 130.882 333.022C126.189 333.415 128.947 310.949 128.849 297.664C128.752 284.378 126.658 274.746 129.629 267.409L129.824 266.925Z" fill="#CF9166"/>
<path d="M132.524 305.249C131.882 287.724 133.048 274.724 130.252 265.483L130.069 264.876C128.134 258.48 122.218 259.619 121.038 266.698C120.826 267.973 120.688 269.293 120.617 270.618C120.267 277.12 121.305 287.253 123.459 300.047C126.367 317.308 127.074 333.185 130.882 333.022C134.689 332.859 133.166 322.774 132.524 305.249Z" fill="#EDAC7C"/>
<path d="M127.207 325.181C127.207 325.181 128.037 331.8 130.347 331.4C132.619 331.006 133.371 325.181 133.371 325.181C133.371 325.181 135.428 331.38 135.037 334.333C134.816 335.997 134.844 338.83 134.91 340.988C134.959 342.596 133.67 343.923 132.061 343.923C132.061 343.923 129.278 344.262 128.123 345.94C126.97 347.618 120.647 347.121 118.643 346.044C116.076 344.666 122.814 337.652 125.198 333.743C127.582 329.833 127.207 325.181 127.207 325.181Z" fill="#361710"/>
<path d="M146.892 224.758L131.994 222.06V221.957L131.708 222.009L131.422 221.957V222.06L116.525 224.758C116.525 224.758 111.256 232.604 112.288 241.834C113.318 251.064 118.069 300.981 118.069 300.981H143.715C143.715 300.981 150.098 251.064 151.129 241.834C152.159 232.604 146.892 224.758 146.892 224.758Z" fill="#195172"/>
<path d="M148.667 228.082C147.727 226.003 146.892 224.757 146.892 224.757L131.994 222.059V221.956L131.708 222.008L131.423 221.956V222.059L116.525 224.757C116.525 224.757 115.689 226.003 114.75 228.082H148.667Z" fill="#0D435E"/>
<path d="M134.912 300.98L135.086 251.113L139.357 300.98" fill="#0D435E"/>
<path d="M112.164 238.856C113.61 238.814 116.045 238.526 119.57 237.412C125.75 235.458 125.803 227.299 125.803 227.299L125.637 223.108L116.525 224.758C116.525 224.758 112.353 230.978 112.164 238.856Z" fill="#0D435E"/>
<path d="M151.252 238.858C151.064 230.979 146.892 224.758 146.892 224.758L137.152 222.994L136.904 227.299C136.904 227.299 136.956 235.458 143.136 237.412C147.325 238.737 149.975 238.894 151.252 238.858Z" fill="#0D435E"/>
<path d="M117.357 182.44L127.94 178.139L136.246 178.229L149.224 183.641C149.224 183.641 142.459 206.894 142.905 212.894C143.35 218.894 146.891 225.685 146.891 225.685H117.357C117.357 225.685 122.645 214.986 121.484 208.674C120.323 202.362 117.357 182.44 117.357 182.44Z" fill="#5C93BC"/>
<path d="M142.187 146.086C138.596 139.367 119.61 136.987 116.12 158.112C113.574 173.507 130.894 177.137 139.674 174.318C154.61 169.523 145.779 152.806 142.187 146.086Z" fill="#3E150D"/>
<path d="M145.278 160.378C145.278 160.378 147.962 156.931 150.432 159.196C152.904 161.462 149.372 168.441 144.641 166.799L145.278 160.378Z" fill="#EDAC7C"/>
<path d="M145.037 162.813L144.708 166.118C148.8 166.853 151.136 161.154 149.254 160.364C147.731 159.725 145.842 161.724 145.037 162.813Z" fill="#F7A588"/>
<path d="M149.913 161.544C149.913 161.544 149.905 161.518 149.893 161.471C149.88 161.424 149.858 161.357 149.831 161.273C149.769 161.109 149.664 160.872 149.464 160.702C149.414 160.659 149.355 160.624 149.295 160.596C149.264 160.582 149.233 160.568 149.198 160.557L149.176 160.549L149.174 160.548C149.192 160.554 149.178 160.55 149.181 160.551L149.178 160.55L149.169 160.548L149.153 160.544L149.088 160.526C149.042 160.512 149.006 160.507 148.971 160.502C148.938 160.496 148.9 160.49 148.857 160.488C148.818 160.486 148.777 160.483 148.737 160.484C148.694 160.484 148.654 160.483 148.612 160.488C148.276 160.511 147.92 160.642 147.581 160.824C147.409 160.912 147.245 161.019 147.083 161.127C146.923 161.236 146.765 161.349 146.616 161.463C146.319 161.693 146.049 161.925 145.815 162.125C145.347 162.537 145.037 162.812 145.037 162.812C145.037 162.812 145.077 162.715 145.164 162.553C145.253 162.392 145.386 162.165 145.573 161.911C145.667 161.784 145.77 161.646 145.89 161.51C146.01 161.373 146.142 161.231 146.287 161.093C146.578 160.818 146.919 160.546 147.312 160.337C147.509 160.233 147.717 160.143 147.935 160.082C148.153 160.022 148.382 159.989 148.606 159.997C148.662 159.998 148.716 160.003 148.772 160.011C148.827 160.014 148.88 160.026 148.933 160.038C148.985 160.048 149.038 160.064 149.092 160.082C149.148 160.099 149.199 160.116 149.235 160.135L149.297 160.164L149.336 160.182L149.371 160.201C149.417 160.225 149.459 160.254 149.499 160.284C149.578 160.347 149.648 160.415 149.701 160.488C149.815 160.63 149.87 160.783 149.902 160.915C149.936 161.046 149.939 161.163 149.941 161.255C149.941 161.348 149.93 161.422 149.925 161.47C149.917 161.519 149.913 161.544 149.913 161.544Z" fill="#CF9166"/>
<path d="M120.392 160.109C120.392 160.109 117.783 156.607 115.265 158.818C112.745 161.028 116.125 168.084 120.892 166.544L120.392 160.109Z" fill="#EDAC7C"/>
<path d="M120.582 162.548L120.839 165.86C116.732 166.508 114.52 160.76 116.419 160.01C117.954 159.405 119.801 161.443 120.582 162.548Z" fill="#F7A588"/>
<path d="M115.735 161.176C115.735 161.176 115.742 161.152 115.756 161.104C115.77 161.057 115.793 160.99 115.823 160.906C115.886 160.743 115.996 160.509 116.202 160.343C116.252 160.302 116.31 160.269 116.372 160.241C116.404 160.229 116.434 160.214 116.467 160.205L116.494 160.197L116.495 160.196C116.476 160.203 116.491 160.197 116.487 160.199H116.491L116.499 160.195L116.515 160.192L116.581 160.176C116.626 160.163 116.663 160.159 116.698 160.154C116.732 160.148 116.771 160.145 116.813 160.143C116.853 160.141 116.892 160.139 116.933 160.142C116.974 160.142 117.016 160.142 117.058 160.149C117.392 160.178 117.746 160.316 118.081 160.507C118.25 160.6 118.413 160.708 118.573 160.819C118.73 160.933 118.885 161.049 119.032 161.167C119.324 161.403 119.59 161.64 119.82 161.844C120.278 162.267 120.582 162.549 120.582 162.549C120.582 162.549 120.544 162.451 120.459 162.287C120.376 162.124 120.247 161.894 120.065 161.635C119.974 161.507 119.873 161.367 119.756 161.228C119.639 161.089 119.512 160.944 119.369 160.802C119.084 160.522 118.75 160.243 118.361 160.024C118.168 159.918 117.959 159.823 117.743 159.758C117.526 159.692 117.298 159.654 117.075 159.657C117.018 159.656 116.963 159.662 116.908 159.667C116.853 159.67 116.8 159.679 116.745 159.692C116.694 159.699 116.641 159.713 116.586 159.731C116.531 159.748 116.48 159.763 116.442 159.783L116.381 159.809L116.342 159.826L116.306 159.844C116.259 159.867 116.215 159.896 116.174 159.925C116.095 159.986 116.025 160.053 115.968 160.124C115.853 160.265 115.794 160.416 115.759 160.546C115.722 160.677 115.716 160.793 115.713 160.887C115.711 160.98 115.719 161.053 115.725 161.102C115.731 161.15 115.735 161.176 115.735 161.176Z" fill="#CF9166"/>
<path d="M135.692 170.979L128.955 170.905C128.955 170.905 128.582 181.452 128.557 181.452C128.557 181.452 129.029 183.561 132.017 183.64C135.006 183.718 135.767 181.528 135.767 181.528C135.743 181.47 135.692 170.979 135.692 170.979Z" fill="#EDAC7C"/>
<path d="M135.767 174.862L128.743 174.627C128.743 174.627 128.704 178.508 128.679 178.508C128.679 178.508 129.056 180.975 132.045 181.054C135.034 181.132 135.737 178.866 135.737 178.866C135.714 178.807 135.767 174.862 135.767 174.862Z" fill="#CF9166"/>
<path d="M135.671 172.918L128.933 172.845C128.933 172.845 128.834 174.191 128.744 175.337C128.73 175.502 130.663 175.817 130.873 175.852C132.518 176.131 134.145 175.937 135.754 175.545C135.714 174.372 135.671 172.918 135.671 172.918Z" fill="#CF9166"/>
<path d="M148.714 157.633C148.623 166.034 141.26 172.767 132.269 172.67C123.277 172.573 116.062 165.683 116.152 157.282C116.242 148.879 123.605 142.147 132.597 142.244C141.588 142.341 148.805 149.23 148.714 157.633Z" fill="#3E150D"/>
<path d="M146.985 157.409C146.873 152.727 144.908 148.286 140.302 146.419C137.961 145.469 135.381 145.196 132.864 145.209C130.377 145.223 127.728 145.355 125.381 146.231C121.178 147.801 120.037 145.238 119.565 149.509C119.518 149.927 118.963 151.716 118.393 157.101C118.291 158.06 118.265 159.013 118.29 159.982C118.347 162.158 118.67 164.344 119.358 166.417C120.191 168.933 121.602 171.275 123.674 172.995C124.851 173.973 126.21 174.726 127.653 175.254C130.036 176.122 132.312 176.425 134.818 175.991C136.517 175.698 138.176 175.162 139.674 174.32C142.159 172.924 144.032 170.732 145.215 168.187C146.209 166.046 146.74 163.711 146.951 161.373C147.067 160.093 147.106 158.791 146.994 157.511C146.991 157.476 146.986 157.443 146.985 157.409Z" fill="#EDAC7C"/>
<path d="M137.039 161.837C136.973 163.166 137.91 164.292 139.13 164.352C140.352 164.412 141.395 163.382 141.462 162.052C141.528 160.722 140.593 159.597 139.371 159.538C138.15 159.478 137.106 160.508 137.039 161.837Z" fill="#CF9166"/>
<path d="M137.067 161.274C137 162.604 137.937 163.729 139.158 163.789C140.38 163.85 141.423 162.819 141.489 161.49C141.557 160.161 140.621 159.034 139.399 158.974C138.178 158.916 137.134 159.945 137.067 161.274Z" fill="black"/>
<path d="M137.859 160.659C137.835 161.14 138.213 161.551 138.702 161.574C139.193 161.598 139.609 161.228 139.633 160.746C139.658 160.264 139.279 159.856 138.79 159.831C138.3 159.807 137.883 160.178 137.859 160.659Z" fill="white"/>
<path d="M123.851 161.318C123.785 162.647 124.721 163.772 125.942 163.832C127.164 163.893 128.207 162.861 128.273 161.533C128.341 160.204 127.405 159.077 126.183 159.018C124.963 158.96 123.918 159.988 123.851 161.318Z" fill="#CF9166"/>
<path d="M123.88 160.754C123.813 162.084 124.75 163.209 125.97 163.27C127.193 163.329 128.235 162.3 128.302 160.97C128.37 159.641 127.433 158.514 126.211 158.456C124.991 158.396 123.946 159.426 123.88 160.754Z" fill="black"/>
<path d="M124.672 160.141C124.648 160.622 125.024 161.032 125.515 161.056C126.005 161.08 126.422 160.709 126.446 160.226C126.47 159.745 126.093 159.336 125.601 159.312C125.112 159.288 124.696 159.658 124.672 160.141Z" fill="white"/>
<path d="M131.644 159.851C131.644 159.851 131.968 162.778 130.59 162.534C127.922 162.068 127.915 167.785 131.944 165.656C133.464 164.853 132.963 159.891 132.963 159.891L131.644 159.851Z" fill="#F48470"/>
<path d="M128.817 168.231C128.817 168.231 134.185 169.124 136.736 166.048C136.736 166.048 138.88 171.794 133.117 172.532C129.477 172.995 128.817 168.231 128.817 168.231Z" fill="#B43128"/>
<path d="M130.642 171.855C131.252 172.358 132.058 172.666 133.117 172.532C134.424 172.364 135.323 171.938 135.935 171.383C136.111 171.215 136.267 171.036 136.409 170.849C136.412 170.846 136.416 170.841 136.418 170.837C136.421 170.834 136.421 170.832 136.423 170.831C136.862 170.209 137.05 169.497 137.107 168.815C133.868 167.968 131.547 170.5 130.642 171.855Z" fill="#F05736"/>
<path d="M128.817 168.232C128.817 168.232 128.824 168.273 128.836 168.345C129.359 168.453 130.326 169.589 131.628 169.544C132.452 169.516 133.259 169.289 134 168.94C134.46 168.724 134.934 168.516 135.332 168.196C135.637 167.953 135.856 167.232 135.985 166.785C133.264 168.97 128.818 168.232 128.817 168.232Z" fill="white"/>
<path d="M129.176 168.568C129.409 169.643 130.307 172.6 133.08 172.245C134.617 172.05 135.697 171.464 136.289 170.506C137.108 169.183 136.815 167.447 136.604 166.622C134.298 168.909 130.441 168.706 129.176 168.568ZM132.583 172.848C129.198 172.812 128.535 168.319 128.53 168.269C128.516 168.181 128.548 168.089 128.615 168.026C128.682 167.963 128.774 167.933 128.867 167.949C128.918 167.957 134.099 168.777 136.509 165.867C136.576 165.788 136.68 165.748 136.784 165.766C136.888 165.783 136.974 165.853 137.01 165.95C137.052 166.064 138.04 168.774 136.79 170.801C136.101 171.916 134.878 172.596 133.155 172.815C132.955 172.841 132.766 172.851 132.583 172.848Z" fill="#F05B4E"/>
<path d="M126.729 167.918C126.715 169.145 125.694 170.129 124.446 170.115C123.198 170.102 122.195 169.096 122.208 167.869C122.222 166.642 123.244 165.66 124.492 165.672C125.74 165.687 126.742 166.691 126.729 167.918Z" fill="#F49B77"/>
<path d="M142.954 166.664C142.941 167.891 141.919 168.875 140.669 168.861C139.422 168.848 138.421 167.843 138.433 166.615C138.447 165.389 139.469 164.406 140.717 164.419C141.965 164.433 142.968 165.438 142.954 166.664Z" fill="#F49B77"/>
<path d="M122.33 155.246C122.33 155.246 122.38 155.154 122.497 155.011C122.556 154.943 122.628 154.853 122.721 154.767C122.812 154.676 122.92 154.581 123.046 154.482C123.17 154.385 123.312 154.287 123.467 154.191C123.624 154.1 123.791 154.002 123.975 153.925C124.154 153.837 124.349 153.769 124.549 153.702C124.748 153.634 124.959 153.596 125.166 153.542C125.376 153.509 125.588 153.477 125.795 153.457C126.004 153.445 126.211 153.44 126.408 153.44C126.607 153.451 126.798 153.468 126.978 153.486C127.16 153.507 127.327 153.548 127.481 153.578C127.634 153.613 127.773 153.643 127.895 153.69C128.016 153.731 128.121 153.772 128.206 153.805C128.376 153.87 128.471 153.917 128.471 153.917C128.471 153.917 128.363 153.932 128.182 153.944C128.092 153.951 127.983 153.961 127.859 153.964C127.737 153.964 127.596 153.981 127.445 153.993C127.295 154.007 127.134 154.007 126.965 154.025C126.795 154.044 126.618 154.061 126.435 154.074C126.253 154.099 126.068 154.127 125.876 154.148C125.688 154.18 125.499 154.212 125.308 154.245C125.213 154.266 125.119 154.287 125.025 154.307C124.93 154.327 124.837 154.343 124.746 154.37C124.654 154.395 124.562 154.418 124.472 154.44C124.38 154.46 124.296 154.493 124.207 154.517C124.031 154.564 123.865 154.623 123.705 154.675C123.624 154.699 123.55 154.734 123.475 154.759C123.4 154.786 123.326 154.809 123.258 154.84C123.12 154.894 122.992 154.944 122.881 154.993C122.766 155.039 122.67 155.087 122.585 155.123C122.508 155.163 122.44 155.189 122.398 155.213C122.353 155.234 122.33 155.246 122.33 155.246Z" fill="black"/>
<path d="M141.563 158.458C141.563 158.458 141.501 158.373 141.368 158.247C141.298 158.187 141.218 158.106 141.115 158.031C141.013 157.954 140.891 157.874 140.757 157.792C140.621 157.711 140.468 157.632 140.301 157.558C140.132 157.487 139.954 157.411 139.762 157.359C139.573 157.294 139.371 157.251 139.165 157.211C138.959 157.168 138.745 157.157 138.533 157.132C138.319 157.125 138.107 157.12 137.897 157.127C137.688 157.142 137.483 157.163 137.286 157.189C137.091 157.226 136.904 157.267 136.727 157.307C136.552 157.35 136.391 157.414 136.242 157.464C136.094 157.518 135.958 157.566 135.845 157.626C135.73 157.683 135.631 157.737 135.552 157.781C135.39 157.868 135.303 157.925 135.303 157.925C135.303 157.925 135.411 157.928 135.592 157.917C135.682 157.912 135.792 157.907 135.916 157.895C136.038 157.88 136.177 157.878 136.33 157.87C136.479 157.864 136.639 157.844 136.812 157.84C136.982 157.837 137.159 157.832 137.341 157.822C137.525 157.824 137.715 157.827 137.906 157.822C138.096 157.829 138.288 157.839 138.482 157.846C138.578 157.855 138.674 157.863 138.77 157.871C138.865 157.879 138.961 157.882 139.056 157.899C139.149 157.913 139.243 157.922 139.336 157.932C139.429 157.941 139.519 157.963 139.608 157.975C139.79 157.999 139.961 158.037 140.128 158.068C140.211 158.08 140.287 158.105 140.365 158.12C140.443 158.138 140.521 158.152 140.591 158.173C140.734 158.21 140.869 158.243 140.986 158.277C141.106 158.309 141.206 158.343 141.292 158.368C141.376 158.398 141.447 158.415 141.492 158.433C141.538 158.449 141.563 158.458 141.563 158.458Z" fill="black"/>
<path d="M146.792 164.395C146.792 164.395 147.147 163.74 147.822 162.492C150.35 157.817 151.417 152.332 150.053 147.196C149.32 144.435 147.81 143.092 146.581 142.44C145.321 141.774 139.592 138.156 136.154 137.112C129.947 135.227 123.337 137.189 118.693 140.414C114.048 143.638 107.99 154.203 113.013 154.312C118.037 154.421 125.673 147.354 123.403 149.175C120.155 151.784 123.335 152.06 130.604 152.309C137.872 152.557 142.182 150.028 142.182 150.028C142.182 150.028 141.908 152.252 142.979 155.548C144.049 158.845 147.02 162.599 147.02 162.599" fill="#361710"/>
<path d="M124.035 179.727L125.802 224.65C125.802 224.65 125.75 232.808 119.57 234.763C113.39 236.718 110.546 236.131 110.546 236.131C110.546 236.131 117.264 207.175 115.917 200.69C114.57 194.206 112.506 183.845 112.506 183.845L124.035 179.727Z" fill="#122738"/>
<path d="M139.508 179.607L136.904 224.65C136.904 224.65 136.956 232.808 143.136 234.763C149.317 236.718 152.16 236.131 152.16 236.131C152.16 236.131 145.441 207.175 146.788 200.69C148.136 194.206 150.2 183.846 150.2 183.846L139.508 179.607Z" fill="#122738"/>
<path d="M157.138 192.471C157.138 192.471 169.608 207.235 169.631 211.88C169.652 216.526 163.111 215.06 163.111 215.06L151.293 198.191L157.138 192.471Z" fill="#EDAC7C"/>
<path d="M157.138 192.47L151.293 198.19L155.991 204.896C155.991 204.896 158.777 200.741 163.826 201.054C160.563 196.526 157.138 192.47 157.138 192.47Z" fill="#CF9166"/>
<path d="M111.788 193.873C111.788 193.873 95.1287 203.668 90.5467 202.905C85.964 202.142 88.5147 195.942 88.5147 195.942L107.139 187.145L111.788 193.873Z" fill="#EDAC7C"/>
<path d="M97.9819 200.947C104.299 198.275 111.788 193.874 111.788 193.874L107.139 187.146L97.9772 191.473C97.9772 191.473 101.374 198.86 97.9819 200.947" fill="#CF9166"/>
<path d="M166.813 215.147C166.847 215.128 166.88 215.108 166.914 215.087C168.225 214.294 169.191 213.012 169.85 211.627C171.255 208.68 171.998 205.266 173.067 202.174C173.898 199.765 174.653 197.168 175.672 194.744C175.516 194.673 175.369 194.582 175.239 194.459C173.943 193.246 173.306 192.423 171.815 191.459C171.387 195.181 166.164 202.487 163.984 208.294C163.553 209.441 163.178 210.629 163.136 211.854C163.058 214.158 164.31 216.594 166.813 215.147Z" fill="#EEC9B1"/>
<path d="M164.044 216.104C164.694 216.494 165.775 216.781 167.262 215.923L167.378 215.855C168.712 215.047 169.846 213.718 170.66 212.013C171.611 210.018 172.264 207.828 172.897 205.71C173.218 204.63 173.552 203.514 173.913 202.467C174.168 201.732 174.414 200.979 174.663 200.22C175.224 198.512 175.803 196.747 176.498 195.091L176.836 194.286L176.041 193.926C175.963 193.891 175.902 193.852 175.852 193.805C175.509 193.484 175.212 193.19 174.934 192.915C174.147 192.135 173.468 191.461 172.301 190.706L171.089 189.922L170.924 191.357C170.704 193.272 168.984 196.434 167.164 199.783C165.668 202.531 164.124 205.372 163.145 207.979C162.724 209.1 162.287 210.433 162.24 211.824C162.175 213.728 162.884 215.407 164.044 216.104Z" fill="#EDAC7C"/>
<path d="M174.756 192.261C174.757 192.256 175.747 189.267 176.128 189.15C176.511 189.034 177.19 189.306 177.19 189.306L176.045 193.592C176.045 193.592 177.641 190.004 178.264 189.696C178.886 189.387 179.582 189.713 179.582 189.713L177.678 194.648C177.678 194.648 178.804 191.083 179.469 190.522C180.136 189.963 180.924 190.201 180.924 190.201L179.317 195.523L179.173 194.85C179.173 194.85 180.271 192.965 180.944 192.821C181.615 192.676 182.262 192.838 182.262 192.838C182.262 192.838 181.054 194.757 180.533 195.989C180.011 197.221 179.066 197.449 179.066 197.449C176.947 196.8 175.139 195.218 173.397 193.865C172.05 192.818 171.089 189.922 171.089 189.922C171.089 189.922 172.916 188.231 174.756 192.261Z" fill="#EDAC7C"/>
<path d="M88.9669 201.053C88.9419 201.023 88.9169 200.994 88.8928 200.963C87.931 199.77 87.4606 198.236 87.3124 196.708C86.9981 193.459 87.4645 189.996 87.5152 186.724C87.555 184.177 87.7321 181.477 87.6018 178.851C87.7719 178.838 87.9419 178.802 88.1057 178.732C89.7375 178.033 90.6174 177.478 92.3483 177.081C91.4802 180.724 93.8959 189.374 93.9646 195.576C93.9778 196.802 93.9248 198.047 93.5465 199.213C92.8343 201.405 90.8257 203.269 88.9669 201.053Z" fill="#EEC9B1"/>
<path d="M91.2427 202.898C90.4986 203.043 89.3854 202.944 88.2801 201.63L88.1943 201.525C87.2154 200.312 86.6023 198.676 86.4197 196.794C86.2068 194.595 86.3402 192.314 86.4689 190.107C86.5344 188.982 86.6023 187.819 86.6194 186.711C86.6311 185.934 86.6561 185.142 86.681 184.344C86.7372 182.547 86.7949 180.69 86.7068 178.896L86.6631 178.023L87.5336 177.957C87.6187 177.952 87.6896 177.935 87.7528 177.908C88.1857 177.724 88.5633 177.548 88.9198 177.384C89.9252 176.919 90.7934 176.518 92.1476 176.207L93.5547 175.883L93.2209 177.289C92.7731 179.163 93.3114 182.723 93.88 186.492C94.3473 189.584 94.8301 192.783 94.8613 195.568C94.8746 196.765 94.8301 198.166 94.3995 199.489C93.8106 201.301 92.5719 202.639 91.2427 202.898Z" fill="#EDAC7C"/>
<path d="M89.3098 176.831C89.3098 176.825 89.4002 173.677 89.0812 173.438C88.7606 173.198 88.0297 173.221 88.0297 173.221L87.6436 177.642C87.6436 177.642 87.3682 173.724 86.8877 173.222C86.408 172.72 85.6428 172.788 85.6428 172.788L85.7481 178.077C85.7481 178.077 85.9064 174.342 85.472 173.588C85.0375 172.835 84.2153 172.789 84.2153 172.789L83.9096 178.34L84.2746 177.757C84.2746 177.757 83.8854 175.611 83.3027 175.245C82.72 174.88 82.0577 174.812 82.0577 174.812C82.0577 174.812 82.5382 177.028 82.6077 178.364C82.6771 179.7 83.4875 180.236 83.4875 180.236C85.7021 180.35 87.9408 179.479 90.0407 178.801C91.6639 178.277 93.5547 175.883 93.5547 175.883C93.5547 175.883 92.4143 173.67 89.3098 176.831Z" fill="#EDAC7C"/>
<path d="M150.2 183.845C150.2 183.845 160.354 191.962 162.775 196.713L152.101 204.418L144.022 192.471L150.2 183.845Z" fill="#122738"/>
<path d="M112.507 183.844C112.507 183.844 103.775 188.124 98.5579 190.893L103.263 202.41L118.174 196.912L112.507 183.844Z" fill="#122738"/>
<path d="M132.859 342.381C131.414 342.683 129.186 341.84 127.514 344.428C125.902 346.923 122.114 346.884 121.841 346.878C124.372 347.203 127.364 347.044 128.123 345.94C129.278 344.261 132.061 343.923 132.061 343.923C133.67 343.923 134.96 342.595 134.91 340.987C134.907 340.894 134.905 340.792 134.903 340.695C134.382 341.408 133.639 342.219 132.859 342.381Z" fill="#1C0906"/>
<path d="M285.752 142.073L286.953 142.499C288.23 142.951 288.897 144.352 288.446 145.628L288.009 146.86C287.557 148.136 286.156 148.804 284.88 148.352L283.679 147.927C282.403 147.474 281.735 146.073 282.187 144.797L282.623 143.565C283.075 142.289 284.476 141.621 285.752 142.073ZM299.626 109.268C302.748 110.373 304.713 112.329 305.521 115.135C306.169 117.353 306.071 119.652 305.227 122.035C303.816 126.018 300.67 129.168 295.788 131.483C294.086 132.291 292.9 133.511 292.228 135.146C291.991 135.685 291.751 136.294 291.511 136.972C291.06 138.248 289.659 138.916 288.383 138.464L287.182 138.038C285.906 137.586 285.237 136.185 285.69 134.909C286.977 131.274 288.827 128.891 291.24 127.757C293.846 126.531 295.865 125.039 297.297 123.281C298.122 122.256 298.765 121.096 299.223 119.803C299.695 118.468 299.769 117.315 299.443 116.345C299.097 115.229 298.27 114.531 296.96 114.251C295.738 113.981 294.609 114.494 293.571 115.791C293.52 115.853 293.468 115.917 293.418 115.983C292.676 116.945 291.336 117.213 290.279 116.614L289.242 116.028C287.958 115.303 287.598 113.613 288.478 112.43C289.353 111.255 290.407 110.31 291.641 109.594C292.978 108.819 294.576 108.484 296.435 108.588C297.412 108.634 298.476 108.861 299.626 109.268Z" fill="#FCC822"/>
<path d="M201.843 145.698L203.598 146.041C205.464 146.406 206.68 148.215 206.315 150.079L205.963 151.881C205.598 153.746 203.79 154.962 201.924 154.597L200.168 154.254C198.303 153.889 197.087 152.081 197.452 150.216L197.804 148.414C198.169 146.549 199.977 145.332 201.843 145.698ZM214.358 97.2739C218.921 98.1671 222.054 100.479 223.755 104.209C225.111 107.156 225.449 110.371 224.767 113.853C223.627 119.678 219.905 124.7 213.602 128.922C211.404 130.394 210.007 132.333 209.411 134.741C209.192 135.54 208.985 136.435 208.792 137.426C208.427 139.291 206.619 140.508 204.753 140.142L202.997 139.798C201.131 139.433 199.915 137.625 200.28 135.76C201.321 130.446 203.399 126.754 206.517 124.683C209.884 122.443 212.382 119.955 214.009 117.218C214.944 115.624 215.597 113.882 215.967 111.99C216.349 110.039 216.213 108.423 215.56 107.141C214.851 105.663 213.559 104.864 211.68 104.746C209.928 104.621 208.464 105.566 207.291 107.581C207.233 107.678 207.174 107.778 207.117 107.88C206.285 109.369 204.479 110.016 202.887 109.404L201.326 108.803C199.394 108.06 198.545 105.786 199.525 103.962C200.498 102.15 201.768 100.619 203.334 99.3714C205.031 98.0204 207.182 97.2255 209.786 96.9869C211.152 96.8496 212.676 96.9447 214.358 97.2739Z" fill="#FCC822"/>
<path d="M173.524 176.886L174.759 176.569C176.069 176.232 177.405 177.022 177.742 178.333L178.067 179.6C178.404 180.91 177.614 182.246 176.303 182.583L175.068 182.9C173.757 183.236 172.421 182.447 172.085 181.135L171.76 179.869C171.423 178.558 172.213 177.223 173.524 176.886ZM166.738 141.919C169.946 141.095 172.668 141.623 174.905 143.5C176.678 144.979 177.88 146.942 178.508 149.39C179.56 153.484 178.706 157.854 175.946 162.498C174.983 164.118 174.679 165.792 175.034 167.523C175.138 168.104 175.279 168.742 175.458 169.439C175.795 170.75 175.005 172.086 173.693 172.422L172.459 172.739C171.148 173.076 169.813 172.286 169.476 170.975C168.517 167.24 168.722 164.229 170.092 161.944C171.572 159.472 172.415 157.107 172.622 154.849C172.735 153.538 172.622 152.217 172.281 150.888C171.928 149.517 171.346 148.519 170.533 147.895C169.625 147.162 168.549 147.044 167.305 147.543C166.14 148 165.489 149.056 165.352 150.71C165.344 150.791 165.337 150.872 165.331 150.956C165.252 152.169 164.29 153.138 163.079 153.231L161.891 153.323C160.421 153.436 159.179 152.235 159.25 150.762C159.321 149.3 159.668 147.927 160.293 146.645C160.971 145.256 162.11 144.086 163.71 143.135C164.547 142.628 165.556 142.223 166.738 141.919Z" fill="#FCC822"/>
<path d="M362.534 177.053L363.769 176.736C365.079 176.399 366.415 177.189 366.752 178.5L367.077 179.766C367.414 181.078 366.624 182.413 365.313 182.75L364.078 183.067C362.767 183.404 361.431 182.614 361.095 181.302L360.769 180.036C360.432 178.726 361.223 177.39 362.534 177.053ZM355.748 142.087C358.956 141.263 361.677 141.79 363.915 143.667C365.688 145.147 366.89 147.109 367.518 149.557C368.57 153.652 367.716 158.021 364.956 162.666C363.993 164.285 363.689 165.959 364.044 167.691C364.148 168.271 364.289 168.91 364.468 169.606C364.805 170.917 364.014 172.253 362.704 172.589L361.469 172.907C360.158 173.243 358.822 172.454 358.486 171.142C357.527 167.408 357.732 164.397 359.102 162.11C360.581 159.639 361.425 157.275 361.632 155.016C361.745 153.705 361.631 152.385 361.291 151.056C360.938 149.684 360.356 148.687 359.543 148.063C358.634 147.329 357.559 147.212 356.315 147.711C355.151 148.167 354.499 149.223 354.361 150.878C354.354 150.958 354.347 151.04 354.342 151.123C354.262 152.336 353.3 153.305 352.088 153.399L350.901 153.491C349.432 153.604 348.189 152.402 348.26 150.93C348.331 149.467 348.678 148.094 349.303 146.811C349.981 145.423 351.12 144.254 352.72 143.303C353.557 142.796 354.567 142.39 355.748 142.087Z" fill="#FCC822"/>
<path d="M222.729 223.379L227.931 201.405L218.47 201.048L213.498 221.332C213.147 222.763 213.229 224.267 213.732 225.651L222.775 250.535L233.605 249.49L222.729 223.379Z" fill="#A7A6BB"/>
<path d="M218.45 220.446C219.415 218.506 220.352 216.772 221.26 215.243C222.516 213 224.105 211.098 226.011 209.519L227.932 201.406L218.469 201.049L213.498 221.333C213.253 222.333 213.232 223.366 213.405 224.371C215.519 223.909 217.412 222.534 218.45 220.446Z" fill="#727293"/>
<path d="M231.948 295.87L231.718 296.938L230.508 302.55L225.154 327.391L224.57 330.09L224.44 330.698L223.363 342.496L222.095 342.88C218.875 343.858 215.585 343.647 212.715 342.469C211.539 341.987 210.341 340.813 209.505 339.88C208.559 338.823 207.794 337.61 207.201 336.322C205.498 332.619 205.105 328.401 205.016 324.375C204.985 323.013 204.993 321.652 204.993 320.29V306.942V295.271V291.031C205.977 291.031 207.08 290.908 207.87 290.854C208.58 290.808 209.857 290.57 210.589 290.57C213.458 289.586 216.417 289.855 219.186 289.518C220.501 289.358 221.774 289.281 222.972 289.232C224.642 289.165 226.169 289.265 227.471 289.588C230.204 290.268 231.948 292.062 231.948 295.87Z" fill="#1C1B2D"/>
<path d="M253.428 332.906L224.942 342.019L223.363 342.497L222.094 342.88C218.874 343.858 215.585 343.648 212.714 342.47C211.966 342.049 211.26 341.559 210.605 341.009C210.6 341.006 210.598 341.001 210.593 340.996C208.387 338.959 206.844 336.206 206.313 333.103L222.797 328.104L225.153 327.392L249.644 320.427L253.428 332.906Z" fill="#1C1B2D"/>
<path d="M268.514 334.962C268.148 333.373 267.508 331.405 267.366 330.784C266.822 328.403 266.017 326.078 265.333 323.734C265.083 322.876 264.777 322.284 264.672 322.096C264.619 322.01 264.626 322.014 264.672 322.096C264.748 322.221 264.948 322.529 265.339 323.064C264.623 322.086 264.049 321.165 263.576 320.055C263.042 318.802 262.632 317.548 262.324 316.299L244.713 321.558L248.7 334.913L256.963 332.446C257.473 332.294 258.009 332.583 258.162 333.093L259.012 335.942C259.275 336.824 259.655 337.639 260.113 338.391C260.592 338.224 261.081 338.084 261.581 337.976C263.765 337.506 265.846 336.733 267.936 335.985C268.114 335.637 268.304 335.295 268.514 334.962Z" fill="#361710"/>
<path d="M252.285 323.616C253.833 323.154 255.463 324.035 255.925 325.582C256.387 327.13 255.507 328.759 253.959 329.222C252.412 329.684 250.782 328.804 250.32 327.256C249.858 325.709 250.738 324.079 252.285 323.616Z" fill="white"/>
<path d="M259.088 336.174C260.835 341.567 266.576 344.605 272.035 342.975C272.545 342.822 272.835 342.286 272.683 341.777L270.034 332.906L259.088 336.174Z" fill="white"/>
<path d="M268.468 343.399C269.641 343.462 270.845 343.331 272.035 342.975C272.545 342.823 272.835 342.286 272.683 341.777L265.124 316.468C264.973 315.958 264.436 315.668 263.926 315.821L260.535 316.833L268.468 343.399Z" fill="white"/>
<path d="M253.135 253.07L251.6 256.214L243.555 272.691L230.315 299.812L205.341 289.698L212.988 272.31L218.472 259.846L226.87 240.752L253.135 253.07Z" fill="#A7A6BB"/>
<path d="M248.652 258.472C248.373 258.472 247.846 258.089 247.215 257.555C245.841 264.778 238.769 270.438 231.424 270.438C225.172 270.438 220.057 266.876 217.391 261.785L211.877 274.838L217.718 283.733C218.956 285.57 221.38 286.186 223.347 285.162L242.443 275.22L250.488 258.744C249.897 258.564 249.277 258.472 248.652 258.472Z" fill="#727293"/>
<path d="M240.486 262.437C239.04 262.437 237.663 262.228 236.354 261.872L220.326 294.702L205.739 288.794L205.341 289.698L230.314 299.812L250.241 258.998C247.446 261.139 243.999 262.437 240.486 262.437Z" fill="#727293"/>
<path d="M257.966 231.133C257.966 231.133 261.842 228.875 263.33 231.978C264.818 235.081 258.784 240.381 254.903 237.007L257.966 231.133Z" fill="#EDAC7C"/>
<path d="M256.805 233.359L255.227 236.383C258.846 238.649 263.252 234.112 261.759 232.639C260.554 231.448 257.989 232.631 256.805 233.359Z" fill="#F7A588"/>
<path d="M261.936 234.016C261.936 234.016 261.938 233.988 261.945 233.938C261.951 233.888 261.955 233.815 261.962 233.725C261.967 233.546 261.956 233.28 261.83 233.041C261.799 232.981 261.757 232.927 261.711 232.876C261.686 232.851 261.662 232.826 261.633 232.801L261.614 232.785L261.613 232.783C261.627 232.797 261.616 232.787 261.619 232.789L261.616 232.787L261.608 232.782L261.595 232.771L261.54 232.731C261.501 232.7 261.469 232.681 261.438 232.663C261.408 232.644 261.374 232.625 261.334 232.606C261.298 232.588 261.26 232.569 261.221 232.556C261.181 232.539 261.143 232.522 261.1 232.511C260.772 232.406 260.382 232.395 259.99 232.438C259.792 232.456 259.595 232.495 259.399 232.536C259.205 232.579 259.012 232.626 258.827 232.678C258.455 232.783 258.108 232.9 257.809 233.001C257.207 233.216 256.805 233.359 256.805 233.359C256.805 233.359 256.881 233.282 257.026 233.161C257.172 233.041 257.386 232.877 257.661 232.705C257.799 232.621 257.95 232.529 258.116 232.445C258.282 232.36 258.463 232.276 258.654 232.2C259.037 232.049 259.466 231.92 259.92 231.871C260.148 231.848 260.379 231.841 260.611 231.867C260.842 231.892 261.073 231.949 261.282 232.042C261.336 232.064 261.385 232.09 261.436 232.118C261.487 232.143 261.533 232.175 261.579 232.206C261.625 232.236 261.669 232.27 261.714 232.308C261.759 232.346 261.802 232.381 261.829 232.413L261.877 232.466L261.907 232.497L261.933 232.529C261.968 232.569 261.997 232.612 262.024 232.657C262.076 232.747 262.115 232.838 262.139 232.927C262.192 233.107 262.187 233.274 262.166 233.412C262.148 233.549 262.108 233.662 262.073 233.75C262.038 233.839 262 233.905 261.976 233.949C261.95 233.993 261.936 234.016 261.936 234.016Z" fill="#CF9166"/>
<path d="M234.357 221.36C234.357 221.36 233.211 217.025 229.966 218.168C226.719 219.311 227.243 227.326 232.374 227.683L234.357 221.36Z" fill="#EDAC7C"/>
<path d="M233.605 223.757L232.584 227.011C228.424 226.058 228.513 219.735 230.61 219.747C232.304 219.756 233.283 222.406 233.605 223.757Z" fill="#F7A588"/>
<path d="M229.512 220.596C229.512 220.596 229.528 220.575 229.56 220.535C229.591 220.495 229.638 220.441 229.699 220.373C229.821 220.241 230.016 220.06 230.275 219.981C230.339 219.961 230.407 219.952 230.478 219.949C230.512 219.95 230.547 219.947 230.581 219.951L230.609 219.954H230.611C230.59 219.953 230.607 219.953 230.603 219.953L230.606 219.954L230.616 219.954L230.632 219.957L230.701 219.967C230.749 219.972 230.786 219.982 230.82 219.991C230.856 219.997 230.893 220.009 230.934 220.025C230.973 220.036 231.011 220.051 231.049 220.068C231.088 220.085 231.127 220.1 231.166 220.123C231.473 220.279 231.757 220.547 232.004 220.855C232.13 221.008 232.243 221.174 232.353 221.342C232.46 221.51 232.563 221.68 232.657 221.847C232.845 222.185 233.008 222.512 233.149 222.794C233.423 223.373 233.605 223.758 233.605 223.758C233.605 223.758 233.606 223.649 233.589 223.461C233.572 223.275 233.536 223.005 233.462 222.69C233.425 222.532 233.382 222.361 233.323 222.184C233.265 222.006 233.199 221.819 233.117 221.63C232.953 221.254 232.741 220.86 232.455 220.503C232.311 220.326 232.149 220.157 231.967 220.012C231.786 219.866 231.584 219.744 231.369 219.662C231.316 219.638 231.261 219.623 231.207 219.607C231.153 219.589 231.099 219.577 231.042 219.568C230.991 219.557 230.935 219.55 230.875 219.545C230.817 219.539 230.761 219.535 230.719 219.539L230.65 219.54L230.606 219.542L230.566 219.546C230.512 219.55 230.459 219.56 230.408 219.572C230.31 219.6 230.218 219.637 230.136 219.682C229.973 219.773 229.859 219.895 229.776 220.005C229.69 220.116 229.641 220.223 229.602 220.312C229.564 220.4 229.545 220.473 229.531 220.521C229.518 220.57 229.512 220.596 229.512 220.596Z" fill="#CF9166"/>
<path d="M244.779 237.567L238.388 234.921C238.388 234.921 233.999 244.828 233.976 244.818C233.976 244.818 233.619 247.008 236.436 248.226C239.254 249.443 240.816 247.649 240.816 247.649C240.815 247.584 244.779 237.567 244.779 237.567Z" fill="#EDAC7C"/>
<path d="M242.725 242.885L235.901 240.515C235.901 240.515 234.378 244.002 234.353 243.992C234.353 243.992 234.091 245.743 236.907 246.962C239.726 248.179 241.195 246.672 241.195 246.672C241.194 246.607 242.725 242.885 242.725 242.885Z" fill="#CF9166"/>
<path d="M244.017 239.407L237.626 236.761C237.626 236.761 237.016 238.006 236.492 239.063C236.415 239.216 238.137 240.254 238.323 240.368C239.785 241.264 241.409 241.7 243.092 241.943C243.502 240.809 244.017 239.407 244.017 239.407Z" fill="#CF9166"/>
<path d="M260.754 221.107C255.146 221.107 250.448 218.244 247.615 213.981H232.167C231.882 214.911 231.623 215.924 231.398 217.046C229.7 225.504 231.917 236.509 240.446 240.039C248.977 243.57 258.991 237.801 262.289 229.832C263.492 226.926 263.682 223.843 263.036 220.926C262.282 221.044 261.519 221.107 260.754 221.107Z" fill="#3E150D"/>
<path d="M260.728 228.956C262.412 224.452 262.237 219.469 258.563 215.93C256.695 214.129 254.342 212.882 251.938 211.933C249.564 210.994 246.989 210.107 244.418 210.044C239.813 209.932 239.539 212.227 237.457 216.115C237.252 216.495 233.782 217.336 233.603 217.728C233.192 218.63 232.749 219.502 232.403 220.434C231.625 222.53 231.097 224.736 230.959 226.975C230.791 229.69 231.241 232.461 232.557 234.892C233.305 236.275 234.312 237.513 235.485 238.566C237.424 240.305 239.476 241.463 242.029 242.009C243.76 242.379 245.547 242.502 247.295 242.272C250.197 241.892 252.82 240.521 254.92 238.549C256.686 236.889 258.085 234.867 259.18 232.72C259.78 231.544 260.314 230.319 260.698 229.057C260.708 229.023 260.716 228.989 260.728 228.956Z" fill="#EDAC7C"/>
<path d="M249.324 227.943C248.753 229.184 249.214 230.615 250.355 231.138C251.496 231.663 252.883 231.08 253.456 229.839C254.028 228.597 253.566 227.167 252.426 226.643C251.284 226.119 249.896 226.701 249.324 227.943Z" fill="#CF9166"/>
<path d="M249.499 227.046C248.927 228.287 249.389 229.718 250.529 230.243C251.671 230.767 253.059 230.184 253.631 228.943C254.203 227.703 253.742 226.271 252.601 225.747C251.46 225.224 250.07 225.805 249.499 227.046Z" fill="black"/>
<path d="M250.489 226.763C250.281 227.213 250.485 227.748 250.943 227.957C251.4 228.167 251.939 227.975 252.146 227.524C252.353 227.074 252.149 226.54 251.692 226.33C251.235 226.12 250.696 226.313 250.489 226.763Z" fill="white"/>
<path d="M236.459 223.187C235.888 224.429 236.349 225.859 237.49 226.383C238.631 226.907 240.02 226.323 240.591 225.084C241.162 223.843 240.701 222.412 239.561 221.887C238.42 221.365 237.031 221.945 236.459 223.187Z" fill="#CF9166"/>
<path d="M236.701 222.66C236.129 223.902 236.591 225.333 237.732 225.857C238.873 226.381 240.261 225.799 240.832 224.558C241.405 223.317 240.943 221.885 239.803 221.362C238.662 220.838 237.272 221.42 236.701 222.66Z" fill="black"/>
<path d="M237.69 222.379C237.484 222.828 237.686 223.363 238.144 223.573C238.602 223.784 239.141 223.59 239.349 223.14C239.555 222.69 239.353 222.155 238.894 221.945C238.437 221.736 237.898 221.929 237.69 222.379Z" fill="white"/>
<path d="M244.606 223.499C244.606 223.499 243.859 228.364 242.492 227.925C239.843 227.077 239.039 232.892 243.433 231.288C245.092 230.683 245.942 223.722 245.942 223.722L244.606 223.499Z" fill="#F48470"/>
<path d="M236.115 220.566C236.115 220.566 236.197 220.497 236.363 220.406C236.446 220.363 236.549 220.305 236.671 220.259C236.792 220.206 236.931 220.158 237.089 220.112C237.245 220.066 237.417 220.027 237.6 219.996C237.785 219.968 237.983 219.939 238.188 219.935C238.391 219.92 238.603 219.931 238.819 219.944C239.036 219.954 239.251 219.998 239.469 220.027C239.681 220.076 239.895 220.126 240.101 220.186C240.304 220.255 240.503 220.328 240.691 220.404C240.877 220.491 241.052 220.58 241.217 220.666C241.382 220.754 241.525 220.859 241.66 220.946C241.792 221.038 241.915 221.12 242.012 221.211C242.111 221.296 242.196 221.376 242.265 221.439C242.402 221.566 242.474 221.647 242.474 221.647C242.474 221.647 242.366 221.621 242.189 221.563C242.1 221.535 241.992 221.502 241.872 221.459C241.756 221.413 241.617 221.374 241.468 221.328C241.32 221.284 241.167 221.222 240.998 221.175C240.828 221.128 240.654 221.076 240.474 221.02C240.291 220.973 240.104 220.929 239.914 220.874C239.723 220.834 239.53 220.792 239.335 220.75C239.236 220.734 239.139 220.718 239.042 220.701C238.944 220.685 238.849 220.663 238.751 220.654C238.654 220.644 238.558 220.63 238.464 220.616C238.369 220.601 238.276 220.6 238.182 220.588C237.996 220.566 237.816 220.559 237.643 220.548C237.556 220.539 237.473 220.544 237.392 220.539C237.31 220.537 237.231 220.531 237.154 220.534C237.002 220.532 236.86 220.531 236.736 220.535C236.608 220.536 236.499 220.544 236.405 220.546C236.317 220.554 236.241 220.553 236.193 220.56C236.141 220.564 236.115 220.566 236.115 220.566Z" fill="black"/>
<path d="M255.83 224.546C255.83 224.546 255.783 224.449 255.67 224.297C255.61 224.225 255.543 224.129 255.452 224.036C255.362 223.939 255.253 223.837 255.132 223.729C255.009 223.624 254.868 223.518 254.712 223.413C254.554 223.312 254.387 223.204 254.202 223.117C254.022 223.019 253.825 222.94 253.624 222.863C253.423 222.782 253.209 222.735 252.999 222.671C252.784 222.627 252.57 222.585 252.356 222.555C252.142 222.533 251.93 222.519 251.727 222.51C251.524 222.513 251.327 222.521 251.141 222.532C250.956 222.544 250.783 222.579 250.623 222.604C250.464 222.633 250.319 222.658 250.193 222.7C250.067 222.737 249.958 222.774 249.869 222.804C249.69 222.864 249.592 222.906 249.592 222.906C249.592 222.906 249.701 222.928 249.886 222.948C249.979 222.96 250.09 222.973 250.217 222.983C250.344 222.99 250.485 223.012 250.64 223.031C250.793 223.052 250.958 223.059 251.132 223.086C251.305 223.112 251.485 223.139 251.672 223.161C251.858 223.194 252.049 223.232 252.243 223.26C252.434 223.3 252.627 223.343 252.822 223.386C252.918 223.411 253.013 223.436 253.109 223.461C253.203 223.487 253.3 223.505 253.393 223.539C253.485 223.569 253.578 223.597 253.67 223.622C253.763 223.647 253.85 223.685 253.938 223.714C254.117 223.77 254.284 223.838 254.447 223.899C254.529 223.926 254.602 223.965 254.678 223.994C254.755 224.025 254.83 224.054 254.897 224.086C255.036 224.148 255.166 224.205 255.278 224.261C255.394 224.314 255.49 224.366 255.572 224.407C255.652 224.452 255.72 224.483 255.763 224.508C255.807 224.532 255.83 224.546 255.83 224.546Z" fill="black"/>
<path d="M260.899 229.192C260.899 229.192 261.83 227.568 262.733 225.341C261.783 227.594 260.899 229.192 260.899 229.192Z" fill="#CF9166"/>
<path d="M262.144 213.267C261.226 213.359 260.271 213.338 259.353 213.357C257.149 213.405 254.943 213.341 252.738 213.381C251.426 213.405 250.116 213.463 248.808 213.565C248.696 213.574 245.661 213.884 245.755 213.845C243.493 214.154 241.239 214.548 238.985 214.894C238.111 215.028 237.253 215.101 236.403 215.14C238.954 215.68 242.258 215.523 244.562 215.299C244.438 215.337 244.328 215.366 244.194 215.412C241.813 216.221 243.781 218.87 247.958 220.651C253.739 223.115 258.977 222.139 258.977 222.139C258.977 222.139 258.043 223.835 257.84 226.822C257.702 228.867 258.208 231.371 258.541 232.748C258.695 233.381 258.811 233.777 258.811 233.777L258.051 235.144C258.051 235.144 259.732 232.303 262.729 228.605C268.976 220.901 268.318 216.43 267.112 214.256C265.419 214.168 263.736 213.848 262.144 213.267Z" fill="#361710"/>
<path d="M261.738 223.07C261.738 223.07 249.308 223.606 228.559 215.355C218.631 211.407 234.872 211.126 234.872 211.126L254.084 210.686L261.738 223.07Z" fill="#2D2C44"/>
<path d="M264.277 226.692C264.277 226.692 263.55 225.16 261.738 223.069C259.653 220.662 256.132 217.514 250.635 215.119C240.369 210.645 234.872 211.126 234.872 211.126C234.872 211.126 235.708 205.096 243.655 202.095C246.742 200.929 249.922 200.616 252.962 201.112C258.064 201.943 262.774 205.044 266.002 210.198C271.127 218.383 264.277 226.692 264.277 226.692Z" fill="#2D2C44"/>
<path d="M261.738 223.07C259.654 220.662 256.132 217.516 250.636 215.12C240.369 210.645 234.872 211.126 234.872 211.126C234.872 211.126 235.708 205.097 243.655 202.096C246.742 200.93 249.923 200.618 252.963 201.113C255.592 202.254 258.078 204.032 260.261 206.438C266.104 212.881 262.704 221.08 261.738 223.07Z" fill="#A7A6BB"/>
<path d="M259.92 231.87C259.92 231.87 251.405 235.227 247.92 237.792C247.005 238.466 246.514 240.752 243.525 240.752C239.823 240.752 240.406 238.984 237.98 237.309C236.622 236.372 233.743 235.422 232.927 234.245C231.132 231.658 231.145 223.339 231.145 223.339C231.145 223.339 228.677 229.79 230.557 235.912C231.365 238.542 232.391 245.382 241.523 245.72C250.16 246.039 251.507 243.38 253.192 241.644C254.877 239.909 259.92 231.87 259.92 231.87Z" fill="#361710"/>
<path d="M201.399 225.967L204.838 227.678C208.491 229.494 209.98 233.928 208.164 237.581L206.409 241.108C204.593 244.761 200.159 246.25 196.506 244.434L193.067 242.722C189.414 240.906 187.925 236.473 189.741 232.82L191.496 229.292C193.312 225.639 197.746 224.151 201.399 225.967Z" fill="#FCC822"/>
<path d="M209.861 248.699L208.667 246.071C208.369 245.191 208.259 244.258 208.341 243.333L208.872 237.422C208.943 236.651 208.703 235.882 208.207 235.286L203.447 229.566C203.143 229.201 202.57 229.246 202.326 229.653C202.181 229.896 202.198 230.201 202.369 230.425L204.576 233.318L202.53 231.693C202.134 231.378 201.545 231.545 201.372 232.02C201.269 232.304 201.349 232.622 201.573 232.823L204.768 235.708L201.751 233.749C201.336 233.478 200.776 233.666 200.606 234.133C200.479 234.483 200.621 234.874 200.943 235.063L203.714 236.677L200.76 235.691C200.404 235.572 200.017 235.758 199.889 236.112C199.771 236.436 199.91 236.798 200.214 236.96L201.914 237.866C203.042 238.469 203.65 239.733 203.414 240.99L202.861 243.94C202.548 245.613 202.884 247.341 203.801 248.774L205.3 251.114L209.861 248.699Z" fill="#EDAC7C"/>
<path d="M247.27 253.188L226.833 264.131C225.478 264.858 223.79 264.419 222.959 263.124L211.012 244.708L202.119 249.553L219.327 277.696C220.567 279.533 222.989 280.149 224.955 279.125L253.2 264.419C255.998 262.963 257.302 259.673 256.263 256.695C254.978 253.012 250.708 251.347 247.27 253.188Z" fill="#A7A6BB"/>
<path d="M235.207 289.611C235.207 300.744 226.183 309.771 215.046 309.771L195.553 308.031L181.627 306.787V303.537C181.627 295.845 187.862 289.611 195.553 289.611H235.207Z" fill="#2D2C44"/>
<path d="M195.153 289.612V343.706L182.936 341.179L181.377 303.538C181.377 295.846 187.281 289.612 195.153 289.612Z" fill="#2D2C44"/>
<path d="M174.289 334.001C168.622 334.132 164.068 338.763 164.068 344.461C164.068 344.993 164.499 345.425 165.031 345.425H174.289V334.001Z" fill="white"/>
<path d="M181.715 324.409V333.032C181.715 333.563 181.284 333.995 180.752 333.995H174.534C174.214 333.995 173.898 334.01 173.585 334.038V342.432H195.653V324.409H181.715Z" fill="#361710"/>
<path d="M191.513 331.077C191.513 332.691 190.204 334.001 188.589 334.001C186.974 334.001 185.664 332.691 185.664 331.077C185.664 329.461 186.974 328.151 188.589 328.151C190.204 328.151 191.513 329.461 191.513 331.077Z" fill="white"/>
<path d="M164.683 340.922C164.286 342.028 164.067 343.219 164.067 344.461C164.067 344.993 164.499 345.424 165.031 345.424H194.689C195.221 345.424 195.653 344.993 195.653 344.461V340.922H164.683Z" fill="white"/>
<path d="M254.846 132.868C263.781 137.312 268.95 143.879 270.349 152.568C271.479 159.438 270.349 166.281 266.958 173.101C261.285 184.507 250.726 192.786 235.28 197.937C229.893 199.732 225.9 202.953 223.296 207.597C222.388 209.126 221.452 210.859 220.487 212.801C218.67 216.453 214.236 217.942 210.584 216.125L207.144 214.414C203.491 212.598 202.002 208.164 203.818 204.512C208.994 194.105 215.396 187.647 223.026 185.133C231.27 182.413 237.854 178.685 242.778 173.946C245.62 171.179 247.963 167.945 249.805 164.241C251.705 160.419 252.343 156.997 251.72 153.974C251.094 150.511 248.873 148.122 245.053 146.808C241.498 145.554 237.932 146.677 234.358 150.179C234.18 150.348 234.003 150.521 233.827 150.699C231.258 153.309 227.153 153.621 224.206 151.447L221.318 149.316C217.741 146.678 217.277 141.489 220.343 138.273C223.388 135.075 226.886 132.631 230.836 130.939C235.118 129.109 240.022 128.687 245.546 129.673C248.452 130.166 251.553 131.23 254.846 132.868Z" fill="#FCC822"/>
<path d="M240.534 238.134C240.775 238.134 240.982 237.97 241.043 237.737C241.283 236.807 242.122 236.118 243.127 236.118C244.134 236.118 244.971 236.807 245.212 237.737C245.272 237.97 245.48 238.134 245.721 238.134C246.059 238.134 246.325 237.818 246.243 237.489C245.891 236.092 244.634 235.057 243.127 235.057C241.62 235.057 240.364 236.092 240.012 237.489C239.929 237.818 240.195 238.134 240.534 238.134Z" fill="#F05B4E"/>
<path d="M249.892 237.203C249.401 234.869 247.749 232.941 245.534 232.097C245.118 231.939 244.645 232.014 244.315 232.312C243.949 232.642 243.549 232.995 243.127 232.995C242.684 232.995 242.265 232.623 241.884 232.278C241.559 231.984 241.097 231.902 240.683 232.051C238.688 232.767 237.099 234.369 236.411 236.41C236.198 237.042 236.508 237.774 237.147 237.966C237.772 238.153 238.39 237.802 238.578 237.216C239.218 235.222 241.127 233.83 243.314 233.956C245.502 234.083 247.239 235.685 247.644 237.739C247.747 238.254 248.179 238.636 248.702 238.666H248.703C249.472 238.666 250.051 237.955 249.892 237.203Z" fill="#361710"/>
<path d="M205.341 289.698C205.341 289.698 219.953 290.088 226.316 295.487C232.678 300.885 234.124 300.981 234.124 300.981C234.124 300.981 235.047 290.118 238.49 283.065C241.934 276.012 237.594 277.942 236.727 279.002C235.859 280.062 224.966 289.213 224.966 289.213L222.811 289.612L205.341 289.698Z" fill="#727293"/>
<path d="M291.985 182.843C291.985 182.843 291.023 186.535 292.607 187.377C294.193 188.22 298.245 188.662 298.286 187.377C298.326 186.093 299.45 184.849 297.443 183.966C295.436 183.084 293.069 182.843 293.069 182.843H291.985Z" fill="#C9BDBD"/>
<path d="M330.776 139.558C330.735 139.566 330.694 139.574 330.652 139.584C330.325 139.654 330.134 139.72 330.134 139.72V139.735C330.056 139.763 329.978 139.788 329.902 139.822C325.683 141.708 325.683 145.568 325.683 145.568L328.286 153.29C328.286 153.29 329.014 153.325 330.104 153.225L330.028 188.195L330.407 188.412C333.233 190.034 336.706 190.041 339.538 188.428L339.95 188.195C339.95 188.195 340.455 174.146 340.642 155.053C340.802 138.8 333.079 139.107 330.776 139.558Z" fill="#161616"/>
<path d="M324.631 145.071L326.191 143.014C326.389 142.753 326.755 142.692 327.024 142.877C328.728 144.048 334.283 148.298 333.524 153.415L324.631 145.071Z" fill="white"/>
<path d="M318.083 177.676C318.086 177.656 319.678 177.477 319.774 177.46C321.165 177.204 322.531 176.785 323.827 176.219C327.835 174.467 330.916 171.234 332.44 167.127C333.533 164.176 333.841 160.985 333.721 157.857C333.548 153.271 332.488 148.259 328.449 145.456C325.009 143.069 323.324 143.794 323.324 143.794C323.324 143.794 318.085 177.664 318.083 177.676Z" fill="#161616"/>
<path d="M319.019 171.801L312.013 171.356C312.013 171.356 311.049 182.31 311.022 182.309C311.022 182.309 311.398 184.529 314.504 184.775C317.61 185.019 318.522 182.783 318.522 182.783C318.499 182.721 319.019 171.801 319.019 171.801Z" fill="#F8D0B7"/>
<path d="M314.755 180.288C312.455 180.106 311.621 179.301 311.343 178.895C311.633 175.681 312.013 171.356 312.013 171.356L319.019 171.801C319.019 171.801 318.82 175.984 318.674 179.188C318.483 179.437 317.503 180.504 314.755 180.288Z" fill="#EFBDAC"/>
<path d="M316.023 175.303L309.016 174.859C309.016 174.859 308.839 176.255 308.683 177.442C308.659 177.614 310.653 178.046 310.87 178.094C312.567 178.474 314.27 178.361 315.967 178.042C315.988 176.818 316.023 175.303 316.023 175.303Z" fill="#CF9166"/>
<path d="M300.554 155.244C300.75 153.836 300.899 152.643 302.032 151.312C304.801 148.06 309.221 146.204 313.463 146.211C319.846 146.221 326.463 148.668 328.169 155.344C328.754 157.63 328.768 160.028 328.542 162.378C328.186 166.083 327.194 169.828 324.958 172.804C322.279 176.371 317.852 178.556 313.392 178.515C306.58 178.452 301.129 174.792 299.297 168.85C297.978 164.573 299.21 161.223 300.228 157.064C300.388 156.408 300.475 155.809 300.554 155.244Z" fill="#F8D0B7"/>
<path d="M330.916 163.151C330.932 163.171 330.952 163.199 330.952 163.199C330.952 163.199 330.948 163.17 330.941 163.115C330.933 163.062 330.921 162.979 330.887 162.877C330.852 162.777 330.805 162.652 330.71 162.518C330.618 162.385 330.487 162.234 330.278 162.11C330.176 162.046 330.055 161.99 329.922 161.943C329.855 161.922 329.785 161.901 329.711 161.888L329.656 161.876L329.594 161.867L329.499 161.853C329.441 161.842 329.362 161.837 329.28 161.833C329.197 161.827 329.118 161.826 329.042 161.829C328.963 161.83 328.884 161.832 328.806 161.841C328.727 161.849 328.647 161.857 328.569 161.872C328.479 161.887 328.391 161.912 328.302 161.934C328.31 161.335 328.289 160.736 328.23 160.142C329.006 160.032 329.875 160.108 330.838 160.512C334.898 162.217 332.888 170.001 326.483 170.324C326.648 169.98 326.797 169.631 326.936 169.277C330.367 168.282 331.63 164.902 330.916 163.151Z" fill="#F8D0B7"/>
<path d="M328.926 162.364C328.983 162.352 329.04 162.345 329.098 162.338C329.157 162.328 329.211 162.323 329.262 162.321C329.312 162.317 329.364 162.313 329.433 162.316L329.53 162.317L329.554 162.318H329.566H329.572C329.567 162.317 329.589 162.319 329.561 162.316H329.563L329.6 162.319C329.652 162.322 329.699 162.329 329.748 162.335C329.844 162.35 329.937 162.373 330.022 162.405C330.365 162.536 330.597 162.765 330.738 162.927C330.809 163.01 330.863 163.076 330.898 163.126C330.909 163.142 330.909 163.14 330.916 163.151C331.63 164.902 330.367 168.282 326.936 169.276C327.59 167.61 327.976 165.847 328.169 164.092C328.224 163.589 328.264 163.084 328.287 162.577C328.441 162.512 328.596 162.442 328.753 162.403C328.81 162.386 328.868 162.375 328.926 162.364Z" fill="#FFB7A1"/>
<path d="M328.806 161.842C328.885 161.832 328.963 161.829 329.041 161.829C329.118 161.826 329.197 161.827 329.279 161.833C329.362 161.837 329.441 161.843 329.499 161.854L329.594 161.868L329.655 161.877L329.711 161.889C329.784 161.902 329.855 161.922 329.922 161.944C330.056 161.99 330.176 162.046 330.279 162.11C330.486 162.235 330.618 162.385 330.711 162.519C330.805 162.652 330.852 162.777 330.886 162.878C330.921 162.979 330.933 163.062 330.942 163.116C330.948 163.17 330.951 163.199 330.951 163.199C330.951 163.199 330.931 163.172 330.917 163.152C330.908 163.141 330.91 163.143 330.897 163.126C330.864 163.077 330.808 163.01 330.739 162.928C330.597 162.766 330.365 162.537 330.021 162.406C329.937 162.374 329.843 162.351 329.748 162.336C329.699 162.33 329.651 162.322 329.601 162.32L329.563 162.317H329.561C329.588 162.32 329.566 162.318 329.572 162.319H329.566H329.554L329.531 162.318L329.434 162.316C329.364 162.313 329.311 162.318 329.261 162.322C329.211 162.324 329.157 162.329 329.098 162.339C329.04 162.346 328.983 162.353 328.925 162.365C328.868 162.376 328.81 162.386 328.754 162.404C328.595 162.443 328.442 162.513 328.286 162.578C328.297 162.365 328.3 162.15 328.303 161.935C328.392 161.913 328.479 161.887 328.569 161.872C328.647 161.858 328.727 161.85 328.806 161.842Z" fill="#FFA792"/>
<path d="M310.402 162.127C310.402 162.127 310.58 165.191 309.16 164.862C306.409 164.23 306.089 170.179 310.397 168.185C312.023 167.433 311.773 162.241 311.773 162.241L310.402 162.127Z" fill="#F48470"/>
<path d="M305.655 170.253C305.574 171.529 304.457 172.497 303.159 172.414C301.861 172.331 300.873 171.231 300.953 169.955C301.035 168.678 302.153 167.711 303.451 167.793C304.749 167.876 305.736 168.976 305.655 170.253Z" fill="#FFB7A1"/>
<path d="M322.608 169.835C322.527 171.111 321.409 172.079 320.109 171.996C318.813 171.914 317.826 170.814 317.906 169.538C317.988 168.262 319.105 167.295 320.402 167.377C321.701 167.459 322.689 168.56 322.608 169.835Z" fill="#FFB7A1"/>
<path d="M301.474 160.266C301.474 160.266 301.54 160.179 301.684 160.053C301.756 159.99 301.845 159.911 301.956 159.837C302.064 159.759 302.192 159.679 302.337 159.599C302.481 159.518 302.643 159.44 302.817 159.369C302.994 159.3 303.182 159.227 303.385 159.177C303.584 159.117 303.795 159.079 304.011 159.044C304.228 159.005 304.451 159.001 304.673 158.981C304.894 158.982 305.117 158.983 305.335 158.997C305.552 159.019 305.765 159.047 305.968 159.079C306.17 159.124 306.365 159.174 306.546 159.221C306.731 159.273 306.895 159.343 307.048 159.401C307.2 159.461 307.34 159.514 307.457 159.583C307.575 159.645 307.676 159.705 307.759 159.752C307.922 159.848 308.011 159.911 308.011 159.911C308.011 159.911 307.898 159.909 307.71 159.892C307.617 159.884 307.503 159.875 307.373 159.859C307.248 159.84 307.101 159.833 306.944 159.82C306.787 159.81 306.621 159.783 306.444 159.774C306.266 159.765 306.082 159.755 305.891 159.738C305.699 159.732 305.504 159.731 305.304 159.72C305.106 159.723 304.905 159.724 304.703 159.727C304.602 159.732 304.501 159.738 304.402 159.744C304.302 159.75 304.202 159.749 304.104 159.763C304.005 159.773 303.908 159.782 303.811 159.79C303.713 159.794 303.621 159.816 303.525 159.826C303.337 159.845 303.156 159.878 302.982 159.904C302.895 159.916 302.813 159.94 302.732 159.953C302.65 159.968 302.571 159.981 302.496 160.001C302.345 160.033 302.205 160.064 302.082 160.096C301.956 160.125 301.849 160.158 301.757 160.181C301.671 160.209 301.596 160.225 301.55 160.243C301.5 160.258 301.474 160.266 301.474 160.266Z" fill="#161616"/>
<path d="M320.076 159.247C320.076 159.247 320.006 159.163 319.859 159.04C319.783 158.982 319.693 158.904 319.582 158.834C319.47 158.759 319.338 158.683 319.193 158.607C319.047 158.532 318.882 158.46 318.703 158.394C318.523 158.331 318.334 158.264 318.13 158.222C317.93 158.167 317.717 158.136 317.5 158.108C317.282 158.076 317.059 158.079 316.838 158.066C316.615 158.074 316.394 158.083 316.176 158.104C315.959 158.133 315.747 158.168 315.544 158.208C315.344 158.259 315.152 158.314 314.971 158.368C314.792 158.424 314.629 158.501 314.476 158.562C314.326 158.628 314.189 158.688 314.075 158.758C313.959 158.824 313.859 158.887 313.78 158.937C313.617 159.039 313.53 159.104 313.53 159.104C313.53 159.104 313.643 159.1 313.831 159.076C313.924 159.066 314.038 159.053 314.166 159.033C314.292 159.008 314.437 158.997 314.594 158.979C314.749 158.965 314.916 158.933 315.093 158.917C315.271 158.903 315.454 158.886 315.643 158.863C315.835 158.852 316.032 158.844 316.231 158.826C316.429 158.821 316.629 158.818 316.831 158.813C316.932 158.815 317.033 158.817 317.133 158.82C317.232 158.823 317.331 158.819 317.431 158.831C317.53 158.838 317.628 158.843 317.725 158.846C317.822 158.849 317.917 158.866 318.011 158.873C318.201 158.887 318.381 158.914 318.557 158.936C318.644 158.942 318.726 158.965 318.808 158.975C318.891 158.987 318.971 158.998 319.046 159.014C319.197 159.043 319.339 159.068 319.462 159.097C319.59 159.121 319.697 159.15 319.788 159.171C319.877 159.197 319.952 159.21 320 159.226C320.049 159.238 320.076 159.247 320.076 159.247Z" fill="#050607"/>
<path d="M315.62 162.251C315.383 163.126 315.903 164.013 316.779 164.232C317.655 164.451 318.557 163.92 318.791 163.044C319.029 162.169 318.51 161.281 317.633 161.062C316.757 160.843 315.855 161.375 315.62 162.251Z" fill="#050607"/>
<path d="M316.28 161.957C316.195 162.274 316.41 162.602 316.762 162.69C317.113 162.779 317.467 162.593 317.553 162.275C317.638 161.959 317.422 161.63 317.07 161.543C316.719 161.454 316.365 161.641 316.28 161.957Z" fill="white"/>
<path d="M306.307 161.869C306.543 162.744 306.024 163.632 305.148 163.851C304.271 164.07 303.37 163.539 303.134 162.663C302.898 161.788 303.417 160.9 304.293 160.681C305.169 160.463 306.071 160.995 306.307 161.869Z" fill="#050607"/>
<path d="M305.647 161.576C305.732 161.893 305.516 162.221 305.165 162.309C304.813 162.398 304.459 162.212 304.374 161.894C304.288 161.578 304.505 161.25 304.856 161.162C305.207 161.073 305.561 161.26 305.647 161.576Z" fill="white"/>
<path d="M321.495 154.752C321.495 154.752 326.99 171.569 321.962 176.597C321.962 176.597 329.265 172.594 329.93 154.242L321.495 154.752Z" fill="#161616"/>
<path d="M328.902 158.256C330.789 157.952 330.921 149.904 330.634 148.807C329.65 145.035 324.265 142.717 320.977 141.484C315.797 139.542 309.286 139.223 304.601 142.588C302.091 144.392 300.859 146.93 299.688 149.697C299.472 150.207 297.132 156.639 297.118 156.639C297.119 156.639 314.953 157.547 314.813 157.539L316.498 157.625C316.498 157.625 327.575 158.469 328.902 158.256Z" fill="#161616"/>
<path d="M342.915 208.291H342.799C341.436 208.297 340.11 208.776 338.933 209.479C340.183 211.116 341.586 212.623 343.391 213.672C343.511 213.741 343.625 213.801 343.737 213.857C343.969 213.589 344.187 213.309 344.38 213.01C345.632 211.071 345.81 208.336 342.915 208.291Z" fill="#E8B79E"/>
<path d="M303.39 257.944C303.39 257.944 304.283 285.39 304.343 287.945C304.402 290.5 307.955 313.374 308.385 318.979C308.815 324.584 307.276 336.099 306.029 340.69L304.515 344.585C304.515 344.585 309.372 346.528 311.259 345.682C314.229 344.35 314.825 339.631 315.573 336.855C316.365 333.911 316.953 330.862 316.827 327.799C316.706 324.855 315.088 322.619 314.472 319.812C312.792 312.166 315.652 304.257 316.06 296.608C316.424 289.783 315.507 282.975 314.486 276.243C313.532 269.965 316.439 264.405 316.138 258.195C316.138 258.195 304.558 249.946 303.259 256.644" fill="#EFC8B1"/>
<path d="M305.494 342.065C305.419 342.402 306.41 342.761 306.635 342.862C308.271 343.603 310.865 344.318 312.212 342.658C313.857 340.636 314.235 337.129 314.932 334.689C315.721 331.926 316.542 328.749 316.297 325.847L316.182 324.48C316.182 324.48 320.03 326.831 319.788 330.094C319.546 333.359 316.263 338.831 316.058 342.246C315.932 344.349 314.908 346.442 313.19 347.691C310.563 349.601 306.027 349.465 303.219 348.025C302.181 347.492 301.362 345.017 302.722 344.392C304.418 343.612 307.162 335.641 306.875 335.373L306.029 340.69C306.029 340.69 305.494 342.062 305.494 342.065Z" fill="#122738"/>
<path d="M319.606 330.901C319.606 330.901 318.515 337.927 319.04 341.859L317.896 342.236L316.755 336.965L319.606 330.901Z" fill="#312E2F"/>
<path d="M329.433 330.901C329.433 330.901 328.511 341.419 329.037 345.352L327.365 345.398L326.582 336.965L329.433 330.901Z" fill="#0C1B26"/>
<path d="M312.093 257.944C312.093 257.944 314.11 285.39 314.169 287.945C314.229 290.5 317.781 313.374 318.212 318.979C318.642 324.584 317.103 336.099 315.856 340.69L314.342 344.585C314.342 344.585 319.199 346.528 321.086 345.682C324.056 344.35 324.652 339.631 325.4 336.855C326.192 333.911 326.779 330.862 326.654 327.799C326.533 324.855 324.914 322.619 324.297 319.812C322.619 312.166 325.478 304.257 325.886 296.608C326.251 289.783 325.333 282.975 324.312 276.243C323.359 269.965 326.265 264.405 325.965 258.195C325.965 258.195 313.262 249.946 311.963 256.644" fill="#F8D0B7"/>
<path d="M315.321 342.065C315.246 342.402 316.237 342.761 316.462 342.862C318.097 343.603 320.692 344.318 322.039 342.658C323.685 340.636 324.062 337.129 324.758 334.689C325.548 331.926 326.368 328.749 326.124 325.847L326.009 324.48C326.009 324.48 329.857 326.831 329.615 330.094C329.372 333.359 326.09 338.831 325.885 342.246C325.758 344.349 324.736 346.442 323.016 347.691C320.39 349.601 315.854 349.465 313.046 348.025C312.008 347.492 311.189 345.017 312.549 344.392C314.245 343.612 316.988 335.641 316.702 335.373L315.856 340.69C315.856 340.69 315.321 342.062 315.321 342.065Z" fill="#122738"/>
<path d="M324.932 198.975C325.887 194.463 329.227 189.85 329.432 188.837C324.166 183.577 319.466 181.708 318.36 181.364L311.812 181.393C310.06 182.105 308.295 182.782 306.538 183.479C305.877 183.74 305.26 183.879 304.843 184.453C304.333 185.157 304.073 186.363 303.737 187.179C302.818 189.409 301.871 191.673 301.417 194.063C301.124 195.606 301.489 197.268 302.114 198.975H324.932Z" fill="#F8D0B7"/>
<path d="M331.49 233.444C329.411 227.495 326.606 221.751 325.558 215.494C321.913 217.039 308.056 216.568 305.355 214.178C304.763 221.952 300.776 229.384 298.883 236.952C297.7 241.682 296.712 246.492 296.535 251.377C296.351 256.488 298.192 271.999 298.567 277.709C313.575 287.42 330.632 278.106 331.312 276.344C334.878 267.111 334.704 253.299 333.822 243.352C333.518 239.915 332.61 236.65 331.49 233.444Z" fill="#122738"/>
<path d="M298.883 236.952C298.804 237.265 298.73 237.58 298.654 237.894C303.987 240.748 324.775 242.465 332.627 237.041C332.29 235.83 331.905 234.632 331.489 233.443C329.492 227.73 326.83 222.202 325.694 216.23L322.515 216.157C319.231 216.537 314.498 216.444 310.763 215.891L306.4 215.792C306.4 215.792 304.828 227.704 299.767 233.85C299.443 234.883 299.142 235.916 298.883 236.952Z" fill="#0B1C28"/>
<path d="M311.332 192.735C311.318 192.51 311.291 192.292 311.262 192.073C311.256 192.036 311.251 192.001 311.244 191.963C310.861 189.392 309.389 187.241 307.499 185.806C305.124 184.089 302.595 182.609 300.106 181.07C295.108 178.037 290.823 175.596 285.767 172.658C284.2 169.766 282.608 166.891 280.952 164.063C280.115 162.649 279.278 161.237 278.338 159.895C277.278 158.66 276.506 157.229 275.75 155.755C274.224 152.839 272.909 149.728 270.808 147.211C269.661 145.891 268.412 144.689 267.105 143.556C267.223 143.761 271.178 150.659 270.773 157.572C270.773 157.572 270.765 157.575 270.76 157.576C271.234 157.855 271.705 158.149 272.18 158.428L272.693 158.738L272.948 158.894C273.044 158.943 273.125 159.001 273.122 159.053C273.255 159.33 273.387 159.798 273.504 160.185C273.975 161.822 274.461 163.464 275.037 165.059C276.182 168.245 277.618 171.314 279.607 173.936C280.601 175.237 281.718 176.458 282.992 177.452C284.244 178.465 285.516 179.452 286.796 180.427C289.359 182.373 291.219 183.725 293.901 185.502C296.586 187.275 299.327 188.966 302.187 190.458C305.077 191.893 308.031 193.244 311.347 193.748C311.35 193.69 311.343 193.635 311.344 193.577C311.354 193.417 311.359 193.126 311.332 192.735Z" fill="#EFC8B1"/>
<path d="M268.914 147.234C268.825 148.229 268.27 150.771 267.894 151.675C267.179 151.567 266.479 151.272 265.859 150.899C265.17 150.507 264.64 149.928 263.977 149.417C263.642 149.175 263.281 148.96 262.871 148.82C262.459 148.711 261.993 148.577 261.448 148.924C261.385 148.973 261.296 149.048 261.256 149.189C261.203 149.337 261.244 149.381 261.244 149.478C261.28 149.611 261.33 149.721 261.384 149.818C261.494 150.012 261.615 150.186 261.743 150.349C261.998 150.679 262.273 150.983 262.553 151.279C263.651 152.476 264.89 153.53 266.027 154.654L266.867 155.53C267.169 155.831 267.523 156.061 267.89 156.254C268.624 156.64 269.411 156.875 270.123 157.212C270.378 157.342 270.627 157.494 270.878 157.644V150.025C269.906 149.736 269.77 147.728 268.914 147.234Z" fill="#EFC8B1"/>
<path d="M293.926 177.393C293.926 177.393 295.256 179.552 294.835 183.885C294.414 188.219 292.607 187.377 292.607 187.377C292.607 187.377 297.122 190.807 301.636 193.215C306.151 195.623 305.97 184.126 305.97 184.126C305.97 184.126 294.402 175.957 293.926 177.393Z" fill="white"/>
<path d="M305.266 215.484C305.249 215.792 305.113 216.181 305.33 216.331C312.266 221.1 325.713 216.125 325.618 215.534C325.151 212.689 325.075 209.751 325.622 206.91C326.852 200.515 331.572 194.317 329.507 187.586C329.499 187.562 329.492 187.538 329.483 187.515C328.788 185.441 321.938 183.037 321.341 182.651C321.543 183.178 320.99 183.785 320.8 184.022C319.866 185.184 318.397 185.909 316.995 186.321C315.367 186.8 313.659 186.994 311.965 186.928C311.014 186.891 310.06 186.769 309.128 186.579C308.557 186.462 307.851 186.28 307.469 185.81C306.768 184.946 307.431 183.689 307.864 182.853C307.864 182.853 307.035 183.164 305.971 183.184C304.652 183.209 300.614 180.531 300.614 180.531C299.871 182.82 301.008 191.927 300.124 194.144C299.567 195.54 299.275 197.076 299.547 198.555C299.988 200.943 301.776 202.76 302.542 205.023C303.514 207.896 305.431 212.355 305.266 215.484Z" fill="white"/>
<path d="M305.008 212.743C305.008 212.743 303.063 227.507 296.522 232.643C291.625 236.488 322.288 240.856 331.625 233.711C332.022 233.406 332.08 232.827 331.756 232.445C331.241 231.839 330.448 230.583 329.431 227.976C327.54 223.132 325.331 213.203 325.331 213.203L305.008 212.743Z" fill="white"/>
<path d="M346.139 213.717C345.641 214.341 344.78 214.479 343.392 213.671C341.514 212.58 340.069 210.995 338.782 209.282C337.141 207.098 335.188 205.16 333.321 203.16C330.799 200.458 328.154 197.804 325.839 194.92C323.949 192.566 322.441 190.777 323.324 187.491C323.459 186.99 323.654 186.492 323.997 186.099C324.517 185.501 325.343 185.347 326.097 185.436C327.975 185.662 329.232 186.984 330.41 188.3C331.638 189.67 333.002 190.933 334.289 192.25C337.035 195.066 339.72 197.966 341.985 201.187C343.461 203.288 345.035 205.365 346.058 207.739C347.098 210.153 347.155 212.445 346.139 213.717Z" fill="#EFC8B1"/>
<path d="M342.915 208.291H342.799C341.436 208.297 340.11 208.776 338.933 209.479C340.183 211.116 341.586 212.623 343.391 213.672C343.511 213.741 343.625 213.801 343.737 213.857C343.969 213.589 344.187 213.309 344.38 213.01C345.632 211.071 345.81 208.336 342.915 208.291Z" fill="#E8B79E"/>
<path d="M344.209 208.9C344.17 208.905 344.131 208.911 344.093 208.916C342.577 209.146 341.191 209.959 340.049 210.987C337.619 213.171 335.62 216.04 333.444 218.487C331.75 220.393 330.054 222.505 328.181 224.354C328.298 224.479 328.398 224.619 328.472 224.782C329.204 226.402 329.477 227.407 330.485 228.872C332.309 225.595 339.944 220.85 344.191 216.321C345.029 215.426 345.833 214.473 346.342 213.356C347.3 211.257 347.079 208.524 344.209 208.9Z" fill="#EFC8B1"/>
<path d="M328.074 227C328.071 227.004 326.008 229.387 325.61 229.347C325.212 229.308 324.688 228.797 324.688 228.797L327.394 225.274C327.394 225.274 324.54 227.978 323.846 228.023C323.152 228.069 322.634 227.501 322.634 227.501L326.29 223.671C326.29 223.671 323.88 226.533 323.05 226.794C322.219 227.057 321.582 226.534 321.582 226.534L325.112 222.233L324.987 222.91C324.987 222.91 323.247 224.23 322.57 224.105C321.894 223.98 321.359 223.582 321.359 223.582C321.359 223.582 323.212 222.273 324.168 221.334C325.123 220.396 326.084 220.549 326.084 220.549C327.793 221.963 328.855 224.12 329.946 226.041C330.79 227.525 330.812 230.369 330.812 230.369C330.812 230.369 330.282 231.33 328.074 227Z" fill="#F8D0B7"/>
<path d="M302.161 154.582C302.161 154.582 299.127 160.42 299.297 168.851C299.297 168.851 293.62 161.423 301.029 150.811L302.161 154.582Z" fill="#161616"/>
<path d="M331.938 203.429C331.938 203.429 338.693 202.466 340.06 197.409C340.06 197.409 330.282 186.182 326.062 184.793C321.842 183.404 319.995 188.26 322.002 191.671C324.009 195.082 331.938 203.429 331.938 203.429Z" fill="white"/>
<path d="M300.21 193.883C300.21 193.883 300.502 192.416 301.675 190.792C302.849 189.166 300.495 190.169 298.217 191.224C298.217 191.224 300.225 192.343 300.222 193.066C300.22 193.473 300.21 193.883 300.21 193.883Z" fill="#E1E4E5"/>
<path d="M310.746 172.354C310.987 172.354 311.194 172.191 311.255 171.957C311.495 171.027 312.333 170.339 313.339 170.339C314.345 170.339 315.183 171.027 315.424 171.957C315.484 172.191 315.692 172.354 315.933 172.354C316.271 172.354 316.538 172.039 316.455 171.71C316.103 170.313 314.846 169.277 313.339 169.277C311.832 169.277 310.576 170.313 310.224 171.71C310.141 172.039 310.407 172.354 310.746 172.354Z" fill="#F05B4E"/>
<defs>
<filter id="filter0_d_11_1132" x="179.578" y="112.993" width="40.2747" height="40.2743" filterUnits="userSpaceOnUse" color-interpolation-filters="sRGB">
<feFlood flood-opacity="0" result="BackgroundImageFix"/>
<feColorMatrix in="SourceAlpha" type="matrix" values="0 0 0 0 0 0 0 0 0 0 0 0 0 0 0 0 0 0 127 0" result="hardAlpha"/>
<feMorphology radius="7.02035" operator="erode" in="SourceAlpha" result="effect1_dropShadow_11_1132"/>
<feOffset dy="10.5305"/>
<feGaussianBlur stdDeviation="11.7006"/>
<feColorMatrix type="matrix" values="0 0 0 0 0.243137 0 0 0 0 0.741176 0 0 0 0 1 0 0 0 0.45 0"/>
<feBlend mode="normal" in2="BackgroundImageFix" result="effect1_dropShadow_11_1132"/>
<feBlend mode="normal" in="SourceGraphic" in2="effect1_dropShadow_11_1132" result="shape"/>
</filter>
<filter id="filter1_d_11_1132" x="382.931" y="209.66" width="40.2746" height="40.2743" filterUnits="userSpaceOnUse" color-interpolation-filters="sRGB">
<feFlood flood-opacity="0" result="BackgroundImageFix"/>
<feColorMatrix in="SourceAlpha" type="matrix" values="0 0 0 0 0 0 0 0 0 0 0 0 0 0 0 0 0 0 127 0" result="hardAlpha"/>
<feMorphology radius="7.02035" operator="erode" in="SourceAlpha" result="effect1_dropShadow_11_1132"/>
<feOffset dy="10.5305"/>
<feGaussianBlur stdDeviation="11.7006"/>
<feColorMatrix type="matrix" values="0 0 0 0 0.243137 0 0 0 0 0.741176 0 0 0 0 1 0 0 0 0.45 0"/>
<feBlend mode="normal" in2="BackgroundImageFix" result="effect1_dropShadow_11_1132"/>
<feBlend mode="normal" in="SourceGraphic" in2="effect1_dropShadow_11_1132" result="shape"/>
</filter>
<filter id="filter2_d_11_1132" x="302.791" y="285.793" width="40.2746" height="40.2743" filterUnits="userSpaceOnUse" color-interpolation-filters="sRGB">
<feFlood flood-opacity="0" result="BackgroundImageFix"/>
<feColorMatrix in="SourceAlpha" type="matrix" values="0 0 0 0 0 0 0 0 0 0 0 0 0 0 0 0 0 0 127 0" result="hardAlpha"/>
<feMorphology radius="7.02035" operator="erode" in="SourceAlpha" result="effect1_dropShadow_11_1132"/>
<feOffset dy="10.5305"/>
<feGaussianBlur stdDeviation="11.7006"/>
<feColorMatrix type="matrix" values="0 0 0 0 0.243137 0 0 0 0 0.741176 0 0 0 0 1 0 0 0 0.45 0"/>
<feBlend mode="normal" in2="BackgroundImageFix" result="effect1_dropShadow_11_1132"/>
<feBlend mode="normal" in="SourceGraphic" in2="effect1_dropShadow_11_1132" result="shape"/>
</filter>
<filter id="filter3_d_11_1132" x="160.044" y="279.783" width="48.2886" height="48.289" filterUnits="userSpaceOnUse" color-interpolation-filters="sRGB">
<feFlood flood-opacity="0" result="BackgroundImageFix"/>
<feColorMatrix in="SourceAlpha" type="matrix" values="0 0 0 0 0 0 0 0 0 0 0 0 0 0 0 0 0 0 127 0" result="hardAlpha"/>
<feMorphology radius="7.02035" operator="erode" in="SourceAlpha" result="effect1_dropShadow_11_1132"/>
<feOffset dy="10.5305"/>
<feGaussianBlur stdDeviation="11.7006"/>
<feColorMatrix type="matrix" values="0 0 0 0 0.243137 0 0 0 0 0.741176 0 0 0 0 1 0 0 0 0.45 0"/>
<feBlend mode="normal" in2="BackgroundImageFix" result="effect1_dropShadow_11_1132"/>
<feBlend mode="normal" in="SourceGraphic" in2="effect1_dropShadow_11_1132" result="shape"/>
</filter>
<filter id="filter4_d_11_1132" x="298.284" y="256.743" width="41.7772" height="41.7772" filterUnits="userSpaceOnUse" color-interpolation-filters="sRGB">
<feFlood flood-opacity="0" result="BackgroundImageFix"/>
<feColorMatrix in="SourceAlpha" type="matrix" values="0 0 0 0 0 0 0 0 0 0 0 0 0 0 0 0 0 0 127 0" result="hardAlpha"/>
<feMorphology radius="7.02035" operator="erode" in="SourceAlpha" result="effect1_dropShadow_11_1132"/>
<feOffset dy="10.5305"/>
<feGaussianBlur stdDeviation="11.7006"/>
<feColorMatrix type="matrix" values="0 0 0 0 0.243137 0 0 0 0 0.741176 0 0 0 0 1 0 0 0 0.45 0"/>
<feBlend mode="normal" in2="BackgroundImageFix" result="effect1_dropShadow_11_1132"/>
<feBlend mode="normal" in="SourceGraphic" in2="effect1_dropShadow_11_1132" result="shape"/>
</filter>
<filter id="filter5_d_11_1132" x="56.8647" y="256.242" width="41.7772" height="41.7772" filterUnits="userSpaceOnUse" color-interpolation-filters="sRGB">
<feFlood flood-opacity="0" result="BackgroundImageFix"/>
<feColorMatrix in="SourceAlpha" type="matrix" values="0 0 0 0 0 0 0 0 0 0 0 0 0 0 0 0 0 0 127 0" result="hardAlpha"/>
<feMorphology radius="7.02035" operator="erode" in="SourceAlpha" result="effect1_dropShadow_11_1132"/>
<feOffset dy="10.5305"/>
<feGaussianBlur stdDeviation="11.7006"/>
<feColorMatrix type="matrix" values="0 0 0 0 0.243137 0 0 0 0 0.741176 0 0 0 0 1 0 0 0 0.45 0"/>
<feBlend mode="normal" in2="BackgroundImageFix" result="effect1_dropShadow_11_1132"/>
<feBlend mode="normal" in="SourceGraphic" in2="effect1_dropShadow_11_1132" result="shape"/>
</filter>
<filter id="filter6_d_11_1132" x="250.701" y="297.314" width="37.2694" height="37.2694" filterUnits="userSpaceOnUse" color-interpolation-filters="sRGB">
<feFlood flood-opacity="0" result="BackgroundImageFix"/>
<feColorMatrix in="SourceAlpha" type="matrix" values="0 0 0 0 0 0 0 0 0 0 0 0 0 0 0 0 0 0 127 0" result="hardAlpha"/>
<feMorphology radius="7.02035" operator="erode" in="SourceAlpha" result="effect1_dropShadow_11_1132"/>
<feOffset dy="10.5305"/>
<feGaussianBlur stdDeviation="11.7006"/>
<feColorMatrix type="matrix" values="0 0 0 0 0.243137 0 0 0 0 0.741176 0 0 0 0 1 0 0 0 0.45 0"/>
<feBlend mode="normal" in2="BackgroundImageFix" result="effect1_dropShadow_11_1132"/>
<feBlend mode="normal" in="SourceGraphic" in2="effect1_dropShadow_11_1132" result="shape"/>
</filter>
<linearGradient id="paint0_linear_11_1132" x1="195.958" y1="118.844" x2="204.103" y2="119.605" gradientUnits="userSpaceOnUse">
<stop stop-color="#FCC822"/>
<stop offset="1" stop-color="#FFDD72"/>
</linearGradient>
<linearGradient id="paint1_linear_11_1132" x1="399.312" y1="215.511" x2="407.456" y2="216.272" gradientUnits="userSpaceOnUse">
<stop stop-color="#FCC822"/>
<stop offset="1" stop-color="#FFDD72"/>
</linearGradient>
<linearGradient id="paint2_linear_11_1132" x1="319.172" y1="291.644" x2="327.317" y2="292.405" gradientUnits="userSpaceOnUse">
<stop stop-color="#FCC822"/>
<stop offset="1" stop-color="#FFDD72"/>
</linearGradient>
<linearGradient id="paint3_linear_11_1132" x1="176.425" y1="285.633" x2="193.256" y2="287.207" gradientUnits="userSpaceOnUse">
<stop stop-color="#FCC822"/>
<stop offset="1" stop-color="#FFDD72"/>
</linearGradient>
<linearGradient id="paint4_linear_11_1132" x1="314.665" y1="262.594" x2="324.438" y2="263.508" gradientUnits="userSpaceOnUse">
<stop stop-color="#FCC822"/>
<stop offset="1" stop-color="#FFDD72"/>
</linearGradient>
<linearGradient id="paint5_linear_11_1132" x1="73.2455" y1="262.093" x2="83.0189" y2="263.007" gradientUnits="userSpaceOnUse">
<stop stop-color="#FCC822"/>
<stop offset="1" stop-color="#FFDD72"/>
</linearGradient>
<linearGradient id="paint6_linear_11_1132" x1="267.082" y1="303.164" x2="271.968" y2="303.621" gradientUnits="userSpaceOnUse">
<stop stop-color="#FDC68A"/>
<stop offset="1" stop-color="#FCC822"/>
</linearGradient>
<linearGradient id="paint7_linear_11_1132" x1="276.098" y1="184.958" x2="276.098" y2="190.968" gradientUnits="userSpaceOnUse">
<stop stop-color="#FCC822"/>
<stop offset="1" stop-color="#FFDD72"/>
</linearGradient>
<linearGradient id="paint8_linear_11_1132" x1="291.123" y1="203.833" x2="291.123" y2="209.843" gradientUnits="userSpaceOnUse">
<stop stop-color="#FCC822"/>
<stop offset="1" stop-color="#FFDD72"/>
</linearGradient>
<linearGradient id="paint9_linear_11_1132" x1="300.64" y1="205.336" x2="300.64" y2="208.341" gradientUnits="userSpaceOnUse">
<stop stop-color="#FCC822"/>
<stop offset="1" stop-color="#FFDD72"/>
</linearGradient>
<linearGradient id="paint10_linear_11_1132" x1="297.853" y1="212.065" x2="297.853" y2="215.07" gradientUnits="userSpaceOnUse">
<stop stop-color="#FCC822"/>
<stop offset="1" stop-color="#FFDD72"/>
</linearGradient>
<linearGradient id="paint11_linear_11_1132" x1="290.962" y1="214.853" x2="290.962" y2="217.858" gradientUnits="userSpaceOnUse">
<stop stop-color="#FCC822"/>
<stop offset="1" stop-color="#FFDD72"/>
</linearGradient>
<linearGradient id="paint12_linear_11_1132" x1="284.233" y1="212.066" x2="284.233" y2="215.071" gradientUnits="userSpaceOnUse">
<stop stop-color="#FCC822"/>
<stop offset="1" stop-color="#FFDD72"/>
</linearGradient>
<linearGradient id="paint13_linear_11_1132" x1="281.607" y1="205.336" x2="281.607" y2="208.341" gradientUnits="userSpaceOnUse">
<stop stop-color="#FCC822"/>
<stop offset="1" stop-color="#FFDD72"/>
</linearGradient>
<linearGradient id="paint14_linear_11_1132" x1="284.394" y1="198.607" x2="284.394" y2="201.612" gradientUnits="userSpaceOnUse">
<stop stop-color="#FCC822"/>
<stop offset="1" stop-color="#FFDD72"/>
</linearGradient>
<linearGradient id="paint15_linear_11_1132" x1="290.962" y1="195.819" x2="290.962" y2="198.825" gradientUnits="userSpaceOnUse">
<stop stop-color="#FCC822"/>
<stop offset="1" stop-color="#FFDD72"/>
</linearGradient>
<linearGradient id="paint16_linear_11_1132" x1="297.691" y1="198.607" x2="297.691" y2="201.612" gradientUnits="userSpaceOnUse">
<stop stop-color="#FCC822"/>
<stop offset="1" stop-color="#FFDD72"/>
</linearGradient>
</defs>
</svg>
